<?xml version="1.0" standalone="no"?>
<!DOCTYPE svg PUBLIC "-//W3C//DTD SVG 20010904//EN"
 "http://www.w3.org/TR/2001/REC-SVG-20010904/DTD/svg10.dtd">
<svg version="1.0" xmlns="http://www.w3.org/2000/svg"
 width="2040.000000pt" height="1429.000000pt" viewBox="0 0 2040.000000 1429.000000"
 preserveAspectRatio="xMidYMid meet">

<g transform="translate(0.000000,1429.000000) scale(0.100000,-0.100000)"
fill="#000000" stroke="none">
<path d="M0 9116 l0 -5176 1018 2 1017 3 80 28 c518 183 904 619 1130 1278
104 302 168 629 207 1059 16 177 16 814 0 990 -71 769 -243 1308 -554 1734
-49 68 -56 82 -45 97 191 263 295 460 396 753 260 753 294 1954 80 2808 -130
519 -340 912 -640 1203 -176 170 -364 287 -566 354 l-88 29 -1017 7 -1018 8 0
-5177z m1839 4053 c93 -56 225 -228 296 -383 134 -295 205 -653 224 -1144 27
-667 -58 -1236 -240 -1608 -62 -124 -161 -258 -237 -318 l-57 -46 -362 0 -363
0 0 1753 c0 965 3 1757 7 1760 3 4 162 7 352 7 333 0 347 -1 380 -21z m17
-4638 c242 -179 414 -593 479 -1155 35 -302 37 -818 5 -1107 -65 -587 -237
-1016 -479 -1194 l-49 -35 -354 2 -353 3 -3 1758 -2 1757 358 0 359 0 39 -29z"/>
<path d="M3583 10488 c2 -3618 3 -3807 20 -3878 53 -218 143 -426 264 -610
100 -151 294 -347 438 -443 335 -222 749 -318 1190 -277 536 51 976 311 1257
745 117 180 208 401 247 600 19 98 19 177 24 3883 l4 3782 -553 0 -554 0 0
-3728 c0 -3401 -1 -3733 -16 -3783 -27 -92 -74 -170 -138 -235 -115 -115 -254
-164 -466 -164 -146 0 -240 19 -341 71 -124 62 -224 194 -263 345 -14 56 -16
426 -16 3778 l0 3716 -550 0 -550 0 3 -3802z"/>
<path d="M8770 14284 c-247 -31 -429 -84 -625 -179 -530 -257 -863 -705 -961
-1290 -21 -131 -29 -388 -15 -530 57 -581 336 -1055 806 -1370 116 -78 278
-160 383 -194 233 -75 411 -264 483 -513 30 -106 38 -324 15 -439 -59 -292
-285 -471 -596 -471 -183 0 -421 89 -619 232 -46 34 -85 59 -87 57 -3 -3 -421
-916 -455 -995 l-18 -42 47 -31 c26 -16 115 -63 197 -104 570 -282 1127 -298
1655 -49 436 207 757 568 904 1015 99 302 120 682 55 1016 -118 614 -551 1131
-1129 1350 -148 56 -219 95 -295 165 -165 150 -246 354 -246 614 0 217 49 361
162 479 145 151 394 214 621 156 155 -40 272 -96 436 -208 52 -36 95 -63 97
-61 1 2 109 236 238 521 l235 517 -95 56 c-235 138 -488 232 -753 279 -92 16
-369 28 -440 19z"/>
<path d="M11146 14273 c-9 -28 -1266 -5525 -1266 -5534 0 -5 252 -9 560 -9
l560 0 6 27 c4 15 24 99 44 188 l36 160 461 3 c433 2 462 1 467 -15 3 -10 37
-182 76 -383 38 -201 75 -389 81 -417 l10 -53 549 0 549 0 4 -802 c3 -788 4
-805 26 -903 78 -349 243 -649 487 -886 153 -147 313 -254 495 -329 l94 -39 3
1915 2 1914 204 0 205 0 70 -94 c301 -400 492 -950 566 -1626 26 -236 35 -599
35 -1417 l0 -773 490 0 c270 0 490 -2 490 -5 0 -7 -159 -1107 -165 -1142 l-6
-33 559 0 558 0 123 853 c67 468 141 981 164 1140 l42 287 617 0 c340 0 618
-3 618 -7 -1 -5 72 -518 162 -1140 l162 -1133 558 0 559 0 -6 33 c-3 17 -334
2318 -735 5112 -402 2794 -733 5090 -735 5103 l-5 22 -579 0 c-543 0 -579 -1
-583 -17 -3 -10 -270 -1861 -594 -4114 l-589 -4097 -6 557 c-6 563 -13 704
-50 1001 -84 678 -286 1301 -574 1774 -31 52 -45 83 -39 91 5 7 40 48 78 91
383 438 586 1175 586 2124 0 693 -110 1284 -320 1715 -221 454 -536 730 -960
842 l-105 27 -952 4 -953 3 -2 -2946 -3 -2946 -575 2945 -575 2946 -487 0
c-455 0 -487 -1 -492 -17z m3946 -1121 c126 -87 246 -344 307 -662 91 -464 84
-1218 -14 -1651 -64 -285 -178 -512 -294 -589 l-44 -30 -329 0 -328 0 0 1486
0 1485 328 -3 327 -3 47 -33z m-3397 -2420 c54 -276 95 -505 93 -508 -3 -2
-104 -3 -225 -2 l-219 3 120 522 c67 288 123 515 127 505 3 -9 50 -243 104
-520z m6934 -2154 l168 -1168 -458 0 c-430 0 -457 1 -453 18 2 9 103 710 225
1557 121 847 223 1547 226 1555 6 16 23 -99 292 -1962z"/>
<path d="M10031 8030 c-216 -46 -387 -173 -486 -362 -101 -192 -101 -443 2
-641 26 -50 63 -98 123 -158 94 -95 156 -134 275 -175 71 -25 94 -28 210 -28
116 0 139 3 210 28 119 41 181 80 275 175 140 140 200 285 200 481 0 308 -192
569 -485 660 -79 25 -251 35 -324 20z"/>
<path d="M8931 6929 c-216 -42 -397 -181 -491 -374 -58 -118 -73 -196 -67
-335 9 -192 65 -319 201 -456 67 -67 98 -89 176 -127 246 -120 515 -95 726 68
115 89 212 237 249 380 21 79 21 252 0 330 -22 86 -85 211 -138 276 -151 185
-423 284 -656 238z"/>
<path d="M11100 6924 c-36 -7 -107 -34 -158 -59 -157 -78 -280 -218 -338 -383
-114 -328 26 -681 335 -841 276 -143 614 -83 823 148 190 210 231 509 106 771
-34 70 -57 100 -132 176 -76 75 -106 98 -176 132 -146 69 -307 89 -460 56z"/>
<path d="M7814 5825 c-144 -31 -255 -96 -362 -210 -259 -277 -239 -714 44
-973 74 -69 167 -120 274 -153 60 -19 97 -23 185 -23 127 0 204 18 311 70 254
125 414 419 375 695 -24 172 -82 291 -203 411 -129 129 -300 198 -483 197 -44
0 -108 -7 -141 -14z"/>
<path d="M9982 5820 c-159 -42 -309 -147 -396 -279 -86 -129 -118 -238 -117
-396 0 -120 17 -192 73 -305 33 -69 58 -102 127 -170 141 -140 291 -204 481
-204 196 0 350 63 484 198 139 139 194 263 203 452 7 137 -12 231 -67 342 -94
185 -251 312 -448 363 -99 25 -241 25 -340 -1z"/>
<path d="M12185 5824 c-208 -50 -404 -225 -480 -428 -125 -334 27 -710 347
-861 103 -49 187 -68 298 -68 111 0 195 19 299 68 178 84 302 230 362 425 19
60 23 98 23 190 1 207 -54 340 -199 486 -103 103 -186 152 -311 184 -93 24
-249 26 -339 4z"/>
<path d="M13363 4738 c-340 -36 -602 -333 -603 -681 -1 -314 213 -590 516
-667 94 -24 241 -26 334 -5 184 44 366 187 448 355 57 116 76 194 76 315 0
121 -19 199 -75 315 -58 119 -179 239 -299 298 -133 65 -251 86 -397 70z"/>
<path d="M6775 4731 c-125 -21 -244 -74 -347 -156 -104 -84 -197 -232 -234
-375 -22 -85 -22 -235 0 -320 61 -241 254 -433 496 -497 87 -23 253 -22 340 1
242 65 431 253 496 496 28 102 24 274 -8 372 -76 229 -258 406 -476 462 -76
20 -199 28 -267 17z"/>
<path d="M8882 4720 c-181 -48 -347 -177 -428 -335 -71 -137 -79 -172 -79
-335 0 -132 3 -152 27 -218 40 -110 84 -178 173 -267 134 -134 289 -198 480
-198 191 0 347 64 479 197 90 90 134 158 174 268 25 67 27 85 27 223 0 143 -2
154 -32 231 -84 220 -258 378 -479 434 -101 26 -242 26 -342 0z"/>
<path d="M11085 4724 c-33 -8 -98 -33 -145 -56 -68 -34 -103 -60 -171 -128
-73 -73 -94 -101 -132 -180 -58 -123 -72 -182 -71 -310 1 -196 62 -339 203
-480 141 -141 285 -200 485 -200 118 0 190 16 295 65 252 119 405 380 388 660
-18 303 -223 551 -515 626 -90 23 -248 24 -337 3z"/>
<path d="M12264 3640 c-272 -37 -485 -213 -571 -475 -23 -70 -27 -97 -27 -210
0 -117 3 -138 28 -210 41 -119 80 -181 175 -276 70 -70 102 -94 171 -127 123
-60 200 -75 340 -69 193 9 320 65 457 202 67 68 89 99 126 176 58 122 72 181
71 309 -1 212 -87 395 -247 528 -138 114 -349 175 -523 152z"/>
<path d="M7784 3620 c-305 -80 -514 -351 -514 -665 0 -522 548 -850 1015 -607
95 50 227 181 277 277 102 196 107 435 13 630 -88 182 -251 314 -451 365 -100
26 -242 26 -340 0z"/>
<path d="M9972 3620 c-119 -32 -206 -84 -303 -180 -138 -137 -202 -291 -202
-485 0 -121 18 -200 75 -315 33 -68 58 -102 127 -170 140 -139 286 -200 486
-200 119 0 190 16 300 69 236 112 385 350 385 616 0 241 -123 461 -330 590
-24 15 -80 42 -125 58 -71 27 -95 31 -210 34 -106 2 -144 -1 -203 -17z"/>
<path d="M11149 2540 c-259 -41 -476 -226 -554 -474 -114 -359 84 -745 445
-866 91 -31 269 -38 365 -16 215 51 412 223 490 430 143 380 -79 809 -470 910
-78 20 -205 27 -276 16z"/>
<path d="M8872 2520 c-117 -31 -205 -83 -302 -180 -139 -139 -201 -286 -201
-481 -1 -218 88 -406 256 -542 123 -99 261 -147 430 -147 124 0 192 16 313 76
332 162 467 577 301 918 -85 174 -262 317 -449 360 -92 22 -256 20 -348 -4z"/>
<path d="M10055 1441 c-280 -46 -497 -240 -571 -511 -27 -99 -25 -264 5 -360
90 -292 332 -484 627 -498 206 -9 370 54 515 198 95 95 135 157 174 275 89
263 -5 578 -223 750 -68 55 -174 108 -257 129 -76 19 -205 27 -270 17z"/>
</g>
</svg>
