<?xml version="1.0" encoding="UTF-8"?>
<svg version="1.1" xmlns="http://www.w3.org/2000/svg" width="3508" height="2481">
<path d="M0 0 C0.78246094 -0.02578125 1.56492187 -0.0515625 2.37109375 -0.078125 C4.5625 0.25 4.5625 0.25 6.28515625 1.515625 C9.07209624 5.29972701 8.72896105 9.68245011 8.82788086 14.23413086 C8.85254173 15.27634544 8.85254173 15.27634544 8.87770081 16.33961487 C8.91287708 17.8444332 8.94606691 19.34929901 8.97749138 20.85420036 C9.02782823 23.23778504 9.08458281 25.62113737 9.14320374 28.00453186 C9.30893215 34.7797499 9.46499845 41.55516187 9.61206055 48.33081055 C9.7025417 52.47884394 9.80212866 56.62657822 9.90732002 60.77426338 C9.94549852 62.35259521 9.98016163 63.9310162 10.0112133 65.50950432 C10.05485184 67.71879047 10.11003076 69.92751709 10.16772461 72.13647461 C10.19579697 73.392379 10.22386932 74.64828339 10.25279236 75.94224548 C10.55444364 79.16395613 11.00795371 81.41937989 12.5625 84.25 C17.36480191 86.12289774 22.49305363 86.86624594 27.5625 87.75 C32.67315137 88.64093731 37.58131128 89.761793 42.5625 91.25 C45.15075707 92.08425785 45.15075707 92.08425785 47.5625 91.25 C51.83710927 85.10925589 55.05759623 78.46459721 58.339571 71.75449181 C59.27299051 69.84773408 60.21273283 67.94421367 61.15428162 66.04145813 C63.82724352 60.63791415 66.49199386 55.23038031 69.14526367 49.81713867 C70.77641009 46.49037401 72.41729942 43.16856964 74.06440544 39.84967995 C74.68730007 38.58966287 75.30645407 37.3277892 75.92172432 36.0640316 C76.78046795 34.30077821 77.65276828 32.5441468 78.52563477 30.7878418 C79.01685318 29.7882695 79.50807159 28.7886972 80.01417542 27.75883484 C81.61881012 25.15875764 82.97065174 23.82992329 85.5625 22.25 C88.48098878 21.62821064 90.51089574 21.91093286 93.5625 22.25 C96.41254777 24.36455157 96.84075594 26.88835589 97.421875 30.25 C98.01292472 36.31144219 95.63040668 40.54603235 92.875 45.8125 C92.3584082 46.8430249 91.84181641 47.8735498 91.30957031 48.93530273 C90.11642328 51.31087685 88.91548969 53.68094181 87.70361328 56.046875 C85.2025089 60.94034654 82.75650496 65.86101134 80.30859375 70.78125 C75.41325996 80.61426202 70.49378967 90.4349776 65.5625 100.25 C68.40307775 103.17110573 71.03753228 105.26151432 74.5625 107.3125 C80.75285375 111.17013722 85.92250007 115.82723571 91.13232422 120.87548828 C92.46483471 122.15613596 93.8271042 123.405619 95.19140625 124.65234375 C108.63657242 137.29795387 116.86307772 153.92860796 123.51953125 170.921875 C124.45458088 173.37956117 124.45458088 173.37956117 126.5625 175.25 C131.49736477 175.60215238 135.63757308 174.91584489 140.38061523 173.59765625 C141.02227631 173.42209198 141.66393738 173.24652771 142.32504272 173.06564331 C143.70651296 172.68649802 145.08688184 172.30332068 146.46621513 171.91647339 C148.6552037 171.3029396 150.84708731 170.70095369 153.04005432 170.10180664 C158.48441933 168.61197585 163.92372348 167.10402675 169.36254883 165.59411621 C173.9658327 164.31661906 178.57122398 163.04734435 183.17985725 161.78927612 C185.32905798 161.19904422 187.47469774 160.59694722 189.62046814 159.99438477 C202.19447642 156.52019559 202.19447642 156.52019559 208.5625 157.25 C211.55630345 159.24586897 213.20058488 160.63259171 214.00390625 164.22265625 C214.1871547 167.38516975 213.96075783 169.67400727 212.14453125 172.30078125 C208.32548851 175.18384075 204.2678102 176.1319863 199.6875 177.375 C198.66390381 177.66358887 197.64030762 177.95217773 196.58569336 178.24951172 C184.88214032 181.51376223 173.11728326 184.56891848 161.35400391 187.60986328 C160.57066177 187.81329346 159.78731964 188.01672363 158.98023987 188.22631836 C157.54378354 188.59910502 156.10679684 188.96986015 154.66905212 189.33764648 C146.56804284 191.44332226 138.60658317 193.88409319 130.5625 196.25 C130.2325 211.43 129.9025 226.61 129.5625 242.25 C135.35167969 242.21519531 141.14085937 242.18039062 147.10546875 242.14453125 C150.77409864 242.12920176 154.442689 242.11475983 158.11132812 242.10351562 C163.93375861 242.08558557 169.75604749 242.06437923 175.57836914 242.02368164 C180.27271895 241.99107402 184.9669169 241.97314397 189.66137123 241.96536827 C191.45193179 241.95982729 193.24248409 241.94900709 195.03297997 241.93280983 C197.54194443 241.91101679 200.05028221 241.90803384 202.55932617 241.90942383 C203.29875961 241.898638 204.03819305 241.88785217 204.80003357 241.8767395 C209.22628679 241.90325506 212.04571545 242.51523197 215.5625 245.25 C216.72593227 247.57686453 216.76145988 249.09721413 216.8125 251.6875 C216.83828125 252.46996094 216.8640625 253.25242187 216.890625 254.05859375 C216.48212728 256.78677498 215.72977539 257.5941611 213.5625 259.25 C209.84113838 260.49045387 206.37542029 260.4105305 202.49853516 260.42358398 C201.67707504 260.430271 200.85561493 260.43695801 200.00926208 260.44384766 C198.22501737 260.45789715 196.44075468 260.46979153 194.6564827 260.47979546 C191.83198781 260.49620749 189.00762591 260.51944559 186.18319702 260.54469299 C178.1524722 260.61546267 170.12169314 260.67558174 162.09082031 260.72680664 C157.17896824 260.75861572 152.26726925 260.79989599 147.35554123 260.84700203 C145.4840915 260.86301012 143.61260651 260.8753372 141.74110794 260.88390923 C139.12233201 260.89607682 136.5039153 260.92023276 133.88525391 260.94702148 C133.11313065 260.94761063 132.34100739 260.94819977 131.54548645 260.94880676 C127.47681888 261.00389715 124.16812503 261.28245286 120.5625 263.25 C119.37743543 265.48794014 119.37743543 265.48794014 118.5625 268.25 C103.38864529 299.43463667 78.14845247 322.85966231 45.5625 334.75 C25.30521762 341.72348907 3.82148253 343.05205943 -17.38500977 340.39282227 C-20.24367924 340.19390212 -22.02812823 340.71676342 -24.4375 342.25 C-27.03099751 345.29380565 -28.55034402 348.4677747 -30.125 352.12890625 C-30.64868164 353.33732178 -31.17236328 354.5457373 -31.71191406 355.79077148 C-31.99135864 356.44214081 -32.27080322 357.09351013 -32.55871582 357.76461792 C-33.77930874 360.60903687 -35.01192987 363.44819317 -36.24395752 366.28767395 C-36.91340299 367.83056073 -37.58229308 369.37368859 -38.25067139 370.91703796 C-41.95183606 379.4565879 -45.71884385 387.96678652 -49.48742676 396.47674561 C-51.51485568 401.05635098 -53.53847884 405.63763776 -55.5625 410.21875 C-57.97390676 415.67638121 -60.38579296 421.13379625 -62.80078125 426.58984375 C-68.05288719 438.45926514 -73.27484742 450.34136809 -78.4375 462.25 C-78.76858765 463.01340698 -79.09967529 463.77681396 -79.4407959 464.56335449 C-95.23364246 501.04091578 -108.22697734 538.45706094 -120.92425537 576.10189819 C-136.13247836 621.19082879 -152.35021151 665.52974263 -173.4375 708.25 C-173.7685675 708.92073547 -174.09963501 709.59147095 -174.44073486 710.28253174 C-193.28264825 748.34887129 -215.60667005 784.51016973 -241.4375 818.25 C-242.33214206 819.42830129 -243.22667816 820.60668305 -244.12109375 821.78515625 C-246.53833001 824.95702374 -248.98363569 828.106358 -251.4375 831.25 C-252.08017822 832.07395264 -252.08017822 832.07395264 -252.73583984 832.91455078 C-258.98857297 840.92379777 -265.311201 848.87627886 -271.67578125 856.796875 C-273.29597675 858.81540737 -274.89645279 860.84321623 -276.48046875 862.890625 C-280.56346698 868.1488999 -284.93243967 873.10314351 -289.4375 878 C-290.00710449 878.62648438 -290.57670898 879.25296875 -291.16357422 879.8984375 C-299.45703418 888.7952733 -307.29513082 894.16491862 -319.62695312 894.65307617 C-331.49058491 894.83474125 -339.40429081 892.22646985 -348.16796875 883.890625 C-356.2193942 874.52270141 -358.24724088 864.24616124 -357.4375 852.25 C-355.55796233 841.29133967 -348.59634187 833.16521833 -341.625 824.875 C-340.38009534 823.37900027 -339.13530348 821.88290667 -337.890625 820.38671875 C-337.29443359 819.67306152 -336.69824219 818.9594043 -336.08398438 818.22412109 C-332.50068127 813.92777043 -328.97399542 809.58486813 -325.4375 805.25 C-324.94926758 804.65364746 -324.46103516 804.05729492 -323.95800781 803.44287109 C-317.12493601 795.0957235 -310.35834933 786.71351159 -303.84960938 778.10986328 C-302.25754784 776.01298832 -300.65172266 773.92694725 -299.046875 771.83984375 C-278.26406091 744.65530402 -260.33382933 715.53372336 -244.4375 685.25 C-243.97923828 684.37875488 -243.52097656 683.50750977 -243.04882812 682.60986328 C-219.33382594 637.1897474 -203.6195367 587.79590065 -186.61625481 539.6003685 C-167.62545016 485.77139718 -148.10974495 432.23258164 -124.4375 380.25 C-123.83373159 378.91857163 -123.23022695 377.58702363 -122.62695312 376.25537109 C-116.48093701 362.69296691 -110.31704761 349.14118865 -103.89453125 335.70703125 C-103.52421783 334.93008408 -103.15390442 334.1531369 -102.77236938 333.35264587 C-100.99371024 329.62113811 -99.20647446 325.89432434 -97.40136719 322.17553711 C-96.75805916 320.83075978 -96.11513493 319.48579876 -95.47265625 318.140625 C-94.62779663 316.39313965 -94.62779663 316.39313965 -93.76586914 314.61035156 C-91.90077457 309.89225532 -90.77443546 306.02420682 -92.58203125 301.1875 C-94.58250742 298.02043036 -96.76276193 295.15736994 -99.125 292.25 C-120.86960697 264.66070987 -128.40256991 230.85232721 -125.14892578 196.17431641 C-120.91102086 163.42583501 -103.21611626 132.44188068 -77.04541016 112.26245117 C-57.91453115 98.04939699 -33.71529879 86.0922657 -9.4375 86.25 C-9.44749275 84.76328545 -9.44749275 84.76328545 -9.45768738 83.24653625 C-9.51851735 73.90337735 -9.56348171 64.56025865 -9.59293652 55.2169466 C-9.60858864 50.41350866 -9.6298187 45.61023066 -9.66381836 40.80688477 C-9.69642789 36.17088945 -9.71435643 31.53504792 -9.72213173 26.89894676 C-9.72767237 25.13071459 -9.73849191 23.36249077 -9.75469017 21.59432411 C-9.77648578 19.1164904 -9.77946606 16.63929119 -9.77807617 14.16137695 C-9.79425491 13.0662529 -9.79425491 13.0662529 -9.8107605 11.94900513 C-9.78405191 7.54502254 -9.15213274 4.75060313 -6.4375 1.25 C-4.11063547 0.08656773 -2.59028587 0.05104012 0 0 Z " fill="#F7941D" transform="translate(1773.4375,977.75)"/>
<path d="M0 0 C10.70348538 7.11936547 19.31837929 16.02290708 22.03125 29.0078125 C23.66809153 43.06671164 21.75796574 54.82534754 13.31640625 66.45703125 C12.45402344 67.65779297 12.45402344 67.65779297 11.57421875 68.8828125 C8.90114305 71.93048877 6.03948166 74.02377977 2.69140625 76.26953125 C2.10617188 76.67623047 1.5209375 77.08292969 0.91796875 77.50195312 C-3.41283482 80.45703125 -3.41283482 80.45703125 -5.68359375 80.45703125 C-5.50820068 81.41423569 -5.33280762 82.37144012 -5.15209961 83.35765076 C-3.49560743 92.40378044 -1.84750162 101.45140358 -0.20747375 110.5005331 C0.63583046 115.15208943 1.48202147 119.80308085 2.33496094 124.45288086 C3.15886267 128.94499347 3.97498356 133.43845781 4.78585815 137.93293953 C5.09567851 139.64252566 5.40824109 141.35161731 5.72366333 143.06017876 C6.16692287 145.46389311 6.60016238 147.86922355 7.03125 150.27514648 C7.22761551 151.32064667 7.22761551 151.32064667 7.427948 152.38726807 C9.69433943 165.25233817 9.69433943 165.25233817 6.75390625 169.95703125 C3.50173831 171.95836537 1.12908126 172.39014221 -2.68359375 172.45703125 C-5.43359375 171.58203125 -5.43359375 171.58203125 -7.68359375 169.45703125 C-10.65807318 162.04084935 -11.95416676 154.34320802 -13.31663513 146.50937653 C-13.72246961 144.17886463 -14.13744166 141.85013988 -14.55480957 139.52166748 C-15.73852571 132.90811929 -16.90536494 126.29162207 -18.06787109 119.67431641 C-18.78252794 115.60995895 -19.50705903 111.54745791 -20.2374115 107.48589325 C-20.51241614 105.94446458 -20.7835117 104.40233301 -21.05055237 102.8595047 C-21.4235985 100.70439354 -21.80908097 98.55184219 -22.19726562 96.39941406 C-22.41249878 95.17635559 -22.62773193 93.95329712 -22.8494873 92.69317627 C-23.69553517 89.41070121 -24.65670459 87.16479848 -26.68359375 84.45703125 C-29.12232794 83.43065751 -31.27990677 82.68965819 -33.80859375 82.01953125 C-40.24918293 80.08704604 -45.42941946 77.76759873 -50.68359375 73.45703125 C-51.29460938 72.98007812 -51.905625 72.503125 -52.53515625 72.01171875 C-60.98760715 64.60186092 -65.97800867 52.3262648 -66.96484375 41.3203125 C-67.50916307 28.95065587 -63.9458655 19.04360907 -55.85546875 9.67578125 C-40.82943011 -5.67456038 -19.39028712 -11.14870948 0 0 Z " fill="#E5D41B" transform="translate(2534.68359375,780.54296875)"/>
<path d="M0 0 C6.14558703 4.51773809 10.03949914 9.44542828 13.3125 16.3046875 C13.65152344 16.98917969 13.99054687 17.67367187 14.33984375 18.37890625 C17.8186908 26.79547169 17.82857487 38.30144296 14.6875 46.8046875 C9.90047266 56.81545344 2.74631365 64.57645591 -7.7265625 68.5078125 C-12.535046 69.80191624 -17.41862469 70.2107347 -22.3671875 70.6171875 C-26.29006221 71.42945332 -27.36181123 72.07741014 -29.6875 75.3046875 C-31.04856491 78.02681732 -32.11958979 80.83173658 -33.1875 83.6796875 C-33.87947027 85.46643185 -34.57223207 87.25286977 -35.265625 89.0390625 C-35.64525391 90.02583984 -36.02488281 91.01261719 -36.41601562 92.02929688 C-38.61214446 97.68660572 -40.88112433 103.31487161 -43.1418457 108.94659424 C-44.89110425 113.30645611 -46.63378611 117.66895049 -48.37573242 122.03173828 C-49.17972724 124.03775997 -49.98862965 126.04183396 -50.8059082 128.04248047 C-52.51416439 132.23656102 -54.08946001 136.43408009 -55.51171875 140.734375 C-55.81916016 141.6315625 -56.12660156 142.52875 -56.44335938 143.453125 C-57.06963902 145.28601049 -57.67089745 147.12761849 -58.24804688 148.9765625 C-59.57112732 152.72574322 -60.54676183 155.47358944 -63.82275391 157.86035156 C-66.94188901 159.35125087 -69.35851447 160.42740001 -72.8503418 160.10498047 C-75.64690956 158.88675467 -76.23278915 156.58575009 -77.3671875 153.8984375 C-78.496584 144.75308051 -73.04042335 134.48365816 -69.9375 125.9921875 C-69.36614577 124.41240651 -68.79494073 122.83257155 -68.22387695 121.25268555 C-65.17781467 112.86784122 -62.02051022 104.53599614 -58.71484375 96.25 C-58.39204437 95.43721085 -58.069245 94.62442169 -57.73666382 93.78700256 C-56.18062729 89.87287693 -54.60855782 85.96669996 -53.00683594 82.07104492 C-48.82681335 72.02071869 -48.82681335 72.02071869 -48.6875 61.3046875 C-50.24245787 57.81391165 -50.24245787 57.81391165 -52.5 54.7421875 C-53.23972531 53.61462459 -53.97545336 52.48442853 -54.70703125 51.3515625 C-55.36058594 50.34609375 -56.01414062 49.340625 -56.6875 48.3046875 C-61.22764553 40.55538372 -60.98323302 29.88292797 -58.99609375 21.328125 C-55.43856447 11.7123764 -48.37738469 2.94169235 -39.31640625 -1.984375 C-26.42972189 -7.86696655 -12.11544963 -7.64259468 0 0 Z " fill="#0A805D" transform="translate(2688.6875,840.6953125)"/>
<path d="M0 0 C0.66644531 0.52980469 1.33289062 1.05960938 2.01953125 1.60546875 C2.63441406 2.08371094 3.24929688 2.56195312 3.8828125 3.0546875 C11.04640904 9.36055852 16.47777271 19.9835542 17.15429688 29.50146484 C17.88743204 44.67943766 15.55204042 55.9809603 5.01953125 67.60546875 C-5.12564231 76.52364491 -15.25544253 80.95669902 -28.71875 80.82421875 C-42.52472019 79.89830937 -52.50190952 74.41800406 -61.98046875 64.60546875 C-69.68778483 55.63006862 -72.71397701 44.44222204 -72.3046875 32.7421875 C-70.94390106 19.57698856 -65.57824649 9.61470352 -55.98046875 0.60546875 C-39.70441026 -11.9165956 -16.54082651 -12.07033286 0 0 Z " fill="#0F75BC" transform="translate(1720.98046875,605.39453125)"/>
<path d="M0 0 C7.786348 6.55433091 13.6086182 14.09200113 15.625 24.25 C16.60154244 37.05772972 13.8556141 46.35957391 5.625 56.25 C-0.37536656 62.82922545 -7.35807005 66.133061 -16.25390625 66.57421875 C-18.91993796 66.68029428 -21.57470299 66.7500516 -24.24291992 66.74731445 C-29.79925538 66.82205854 -33.00236093 67.49004634 -37.375 71.25 C-39.55424313 73.57435741 -39.55424313 73.57435741 -41.5 76.1875 C-45.00326491 80.61392255 -48.64710345 84.81239445 -52.5 88.9375 C-53.53390014 90.04683216 -54.56775562 91.15620593 -55.6015625 92.265625 C-56.08399414 92.78318359 -56.56642578 93.30074219 -57.06347656 93.83398438 C-60.84324156 97.91489223 -64.44318238 102.15146052 -68.04296875 106.390625 C-73.58686303 112.90769341 -79.21403434 119.3036927 -85.06933594 125.54321289 C-89.08057068 129.84806577 -92.74844374 134.34383637 -96.33984375 139.0078125 C-98.52011867 141.40988123 -100.466616 142.8284341 -103.375 144.25 C-106.95752131 144.17688732 -108.79070848 143.67637489 -111.6875 141.5625 C-113.81622671 138.64535598 -114.30276805 136.86159747 -114.375 133.25 C-112.56443297 129.00630504 -110.41045068 125.89853128 -107.25 122.5625 C-104.0513321 119.11144123 -101.00263844 115.61133419 -98.0625 111.9375 C-94.17049728 107.12174096 -90.0424213 102.59750038 -85.81274414 98.08227539 C-82.73550275 94.77857246 -79.81856833 91.40606887 -77 87.875 C-72.74406116 82.56091183 -68.13853521 77.63108682 -63.42236328 72.72705078 C-55.52951218 65.03362436 -55.52951218 65.03362436 -51.375 55.25 C-52.40749082 52.507266 -53.4916963 49.9467732 -54.75 47.3125 C-60.02537122 36.07142578 -60.67633839 27.3616123 -56.69921875 15.40234375 C-52.87187043 6.29122252 -45.64244472 -0.50266606 -36.6875 -4.5625 C-24.57722718 -8.90391856 -10.63087232 -7.52591735 0 0 Z " fill="#E5D41B" transform="translate(2207.375,814.75)"/>
<path d="M0 0 C1.2265536 1.04141344 2.43572804 2.10370671 3.625 3.1875 C4.21667969 3.66574219 4.80835938 4.14398437 5.41796875 4.63671875 C15.39927467 13.38413255 18.92684177 26.3907063 19.9375 39.125 C19.47861474 52.3246994 13.61356763 63.18259965 4.17578125 72.14453125 C-5.46593281 79.86676165 -17.13822542 83.19326229 -29.375 82.1875 C-41.75752161 80.6200922 -53.58835012 75.21091972 -61.375 65.1875 C-68.8246486 52.33204277 -71.25515607 40.27682817 -68.76171875 25.5703125 C-65.75371971 14.51889751 -59.68803845 5.82835059 -50.02734375 -0.37890625 C-34.84513292 -8.58490238 -14.63478762 -10.51787241 0 0 Z " fill="#072840" transform="translate(1402.375,767.8125)"/>
<path d="M0 0 C9.43973305 6.84508671 17.66497284 16.0148625 20 27.8359375 C21.52196081 42.53237155 19.58220808 54.39922011 10.25 66.25 C2.11198203 75.98762839 -8.54775875 81.39027504 -21.13671875 82.56640625 C-34.02068839 83.00579355 -43.81860987 79.34737035 -53.75 71.25 C-54.70519531 70.49976563 -54.70519531 70.49976563 -55.6796875 69.734375 C-61.76932477 64.37549421 -68.16142078 53.60178459 -68.92700195 45.33984375 C-69.37245372 29.69401604 -67.68233202 18.3157845 -56.75 6.25 C-40.34869147 -8.16766945 -19.05544919 -11.88125111 0 0 Z " fill="#0F75BC" transform="translate(2414.75,1362.75)"/>
<path d="M0 0 C9.52893245 7.7898117 15.16919589 16.5843391 18.0546875 28.6796875 C19.25217871 43.0651339 16.58062121 54.78256918 7.16796875 65.91015625 C-1.25587143 74.73119126 -11.40938445 79.96927452 -23.671875 80.8828125 C-37.41809647 81.10512336 -48.91256043 77.0246894 -59.09375 67.6953125 C-67.91517326 58.09224414 -71.3526054 46.00098906 -71.22265625 33.22265625 C-70.29974603 21.43280312 -65.28231749 10.48470897 -56.6953125 2.3671875 C-40.49736192 -11.10841844 -17.27665837 -12.72017704 0 0 Z " fill="#D82027" transform="translate(2101.9453125,1616.3203125)"/>
<path d="M0 0 C10.00789443 9.19051659 13.20274415 21.03380703 13.8046875 34.171875 C13.82762563 44.8610436 9.98624785 54.55238276 3.5625 63.125 C-6.3419311 72.8043304 -16.91980312 77.15186112 -30.6875 77.3125 C-43.63550023 77.14885818 -53.41954209 73.50197675 -63.1875 64.8125 C-72.91661771 54.61320188 -75.71837858 43.86064215 -75.46484375 30.02734375 C-74.94533087 18.65233792 -70.15777177 9.58876179 -62.875 1.125 C-44.35653858 -14.80949006 -19.21817663 -15.41080202 0 0 Z " fill="#9F1F63" transform="translate(2245.1875,1499.1875)"/>
<path d="M0 0 C7.05507217 6.46985881 11.67598053 14.24513639 14.54296875 23.33203125 C14.73503906 23.93917969 14.92710938 24.54632812 15.125 25.171875 C17.53561112 37.63045395 15.03917185 49.39769723 8.25 59.953125 C1.0526696 69.98327195 -9.19490139 76.35560973 -21.33203125 78.76953125 C-34.81586337 80.53597214 -46.08739489 77.7159554 -57.3203125 70.0625 C-66.57046589 62.94541968 -71.22438271 52.33461667 -72.95703125 41.0859375 C-74.25941596 28.91678039 -72.58395384 17.94404879 -65.46875 7.80078125 C-48.98255194 -12.43082491 -20.66941715 -16.07621334 0 0 Z " fill="#F1592A" transform="translate(1336.45703125,1174.66796875)"/>
<path d="M0 0 C1.3303125 0.86625 1.3303125 0.86625 2.6875 1.75 C11.53711888 10.36043999 16.01407161 20.41480744 16.29248047 32.63720703 C16.4015265 46.18817167 13.62479842 56.6742672 4.2578125 66.90234375 C-4.76037333 75.45278135 -15.64139876 79.31486875 -27.8125 80.3125 C-37.95330424 79.96422996 -46.8159942 76.89942467 -55 71 C-55.64710938 70.5359375 -56.29421875 70.071875 -56.9609375 69.59375 C-65.75638154 62.68030054 -71.22002772 51.95106755 -73 41 C-74.06785116 27.81614531 -70.44506595 16.00706113 -61.9375 5.9375 C-45.03240558 -12.01725715 -20.08664275 -13.87466249 0 0 Z " fill="#F1592A" transform="translate(2399,860)"/>
<path d="M0 0 C8.85308714 7.9354927 13.83678069 19.60555018 14.84765625 31.32421875 C14.95207031 32.34902344 14.95207031 32.34902344 15.05859375 33.39453125 C15.58549659 43.40568519 11.44127555 52.29200188 5.84765625 60.32421875 C5.40679688 60.96230469 4.9659375 61.60039063 4.51171875 62.2578125 C-1.92204903 70.60683485 -12.80934167 76.61032071 -23.15234375 78.32421875 C-36.05121742 79.31769261 -47.45348321 77.27529371 -57.87109375 69.29296875 C-66.48674152 61.8575467 -71.68278281 53.52675798 -74.15234375 42.32421875 C-75.02980704 27.81011284 -73.72531717 15.94397491 -64.15234375 4.32421875 C-46.5844498 -14.32270131 -20.03535552 -15.5992151 0 0 Z " fill="#F1592A" transform="translate(1765.15234375,1708.67578125)"/>
<path d="M0 0 C10.14212234 7.39917773 17.99406522 17.33994115 20.30859375 29.9140625 C21.85795188 43.92284226 19.81611715 54.95188944 11.58984375 66.45703125 C6.90185371 72.25956794 1.18602463 76.06647098 -5.41015625 79.45703125 C-6.07273437 79.79992187 -6.7353125 80.1428125 -7.41796875 80.49609375 C-17.59543373 84.76663788 -31.68190909 83.7438403 -41.734375 79.78125 C-54.28473243 73.5701972 -62.18211048 64.48958819 -67.16015625 51.5 C-70.82493145 39.41133182 -68.27864228 26.77553082 -62.72265625 15.76953125 C-56.51083197 5.14444008 -47.33687954 -1.60638132 -35.4855957 -5.11230469 C-23.69430116 -7.55905726 -10.17225363 -6.51222072 0 0 Z " fill="#9F1F63" transform="translate(2337.41015625,709.54296875)"/>
<path d="M0 0 C5.130445 4.75644994 8.15254228 9.76419406 10.83984375 16.1875 C11.25234375 17.13625 11.66484375 18.085 12.08984375 19.0625 C15.45595966 33.08798298 13.26448077 44.91622492 5.83984375 57.1875 C-1.01944406 67.23635664 -12.31892594 73.78159632 -24.16015625 76.1875 C-38.02114988 77.21486405 -49.58823286 75.11640789 -60.78515625 66.328125 C-68.45676372 59.41358406 -74.306089 49.43505512 -75.3828125 39.03735352 C-76.1643602 23.39124011 -73.87530304 11.25181673 -63.16015625 -0.8125 C-60.65513922 -3.14760308 -58.08439816 -5.0372726 -55.16015625 -6.8125 C-54.53496094 -7.20050781 -53.90976563 -7.58851562 -53.265625 -7.98828125 C-35.69756096 -17.82782832 -14.62982405 -12.2752954 0 0 Z " fill="#9F1F63" transform="translate(2415.16015625,1171.8125)"/>
<path d="M0 0 C7.94079262 7.21646356 14.20474085 17.77935501 14.828125 28.640625 C15.10764483 43.08720051 12.03974474 54.27032049 2.125 65.2890625 C-5.44114005 72.43486144 -16.03834381 77.14740962 -26.375 78.1015625 C-27.45974609 78.20597656 -27.45974609 78.20597656 -28.56640625 78.3125 C-40.22338497 78.85468506 -50.95251296 74.51563769 -60 67.4140625 C-68.38499272 59.76834988 -73.59317907 49.95530909 -74.71875 38.6484375 C-75.04548616 26.28691938 -72.4571061 16.24226455 -65.375 6.1015625 C-64.653125 5.0496875 -63.93125 3.9978125 -63.1875 2.9140625 C-45.52077737 -14.75266013 -19.1746599 -15.32711301 0 0 Z " fill="#9F1F63" transform="translate(1254.375,1084.8984375)"/>
<path d="M0 0 C9.18923597 8.41352125 15.12248666 18.48986168 16.05859375 31.0625 C16.50462647 45.20605377 12.76191142 55.91115688 3.21875 66.39453125 C-7.14286148 76.14960938 -20.42739173 79.35066098 -34.21875 78.96484375 C-45.01769615 78.11620358 -54.47954781 72.83560103 -61.8828125 65.02734375 C-70.78564508 54.19901482 -74.539614 41.50375409 -73.1953125 27.65234375 C-70.6202982 14.60766055 -63.99896692 4.41368908 -53.1953125 -3.34765625 C-36.18996828 -13.3974311 -15.47364374 -12.61647716 0 0 Z " fill="#F1592A" transform="translate(1551.1953125,662.34765625)"/>
<path d="M0 0 C11.2900439 7.39692532 18.12866779 17.33981892 21.29296875 30.45703125 C22.69847743 46.34254796 18.80827272 57.11555365 8.671875 69.42578125 C2.09783036 76.61466459 -7.60537024 81.89218427 -17.3359375 82.79296875 C-31.56008408 82.93422145 -44.27264103 80.01424489 -55.1484375 70.26953125 C-64.4804719 60.67613839 -68.01953125 49.64537263 -68.01953125 36.46777344 C-67.76878135 24.64263595 -63.57925376 15.19117593 -55.70703125 6.45703125 C-40.6955364 -7.50715 -17.78884257 -10.13938357 0 0 Z " fill="#E5D41B" transform="translate(1896.70703125,608.54296875)"/>
<path d="M0 0 C5.94022431 5.46995655 10.91368647 11.14735907 13.875 18.7265625 C14.22949219 19.60828125 14.58398438 20.49 14.94921875 21.3984375 C18.16894726 32.9731577 16.73227138 46.31678721 10.875 56.7265625 C3.71045793 67.69488064 -5.59882787 74.17285481 -17.953125 78.34375 C-31.1432857 80.66863444 -43.71407679 78.60977428 -54.875 71.1640625 C-65.05927264 63.21356972 -70.60405349 53.13389832 -72.65234375 40.46484375 C-73.97121785 27.94294922 -71.75864179 17.24179611 -64.1484375 7.08984375 C-56.10820521 -2.41354036 -46.85124778 -7.25968801 -34.875 -10.0234375 C-21.92250342 -10.88693727 -10.23121364 -8.31286108 0 0 Z " fill="#0A805D" transform="translate(1942.125,1692.2734375)"/>
<path d="M0 0 C9.36050655 7.39892981 15.80079921 16.57488603 17.87890625 28.55078125 C19.3216505 41.03166405 16.47006091 52.45811258 9.125 62.6796875 C8.68414063 63.31519531 8.24328125 63.95070313 7.7890625 64.60546875 C1.7771516 72.44180347 -7.39879828 77.35696538 -16.875 79.6796875 C-19.99409921 80.08413125 -23.04490722 80.15853741 -26.1875 80.1171875 C-27.01636719 80.10816406 -27.84523438 80.09914063 -28.69921875 80.08984375 C-41.49966929 79.73095261 -51.76694675 75.04375114 -60.71875 65.76953125 C-69.86709198 54.4041166 -71.84538634 41.80779383 -70.875 27.6796875 C-69.208076 17.12721097 -63.14672589 7.36258684 -54.875 0.6796875 C-38.01645972 -11.37431095 -17.04610586 -12.23666885 0 0 Z " fill="#072840" transform="translate(1433.875,1572.3203125)"/>
<path d="M0 0 C8.66439595 6.89143237 13.47725445 16.31273251 16 27 C17.16273147 40.7770159 15.4598067 52.44190809 6.90625 63.75 C0.094044 71.79063659 -9.212808 78.2253509 -20.0078125 79.17700195 C-35.85673164 79.63572874 -47.67670194 77.92159591 -60 67 C-68.17706979 58.69926942 -72.97540871 47.54512962 -73.25 35.875 C-73.03428269 23.03982007 -67.61407581 12.21333359 -59.0390625 2.8828125 C-42.1662016 -12.69710886 -18.35036694 -13.20624768 0 0 Z " fill="#E5D41B" transform="translate(1303,917)"/>
<path d="M0 0 C10.6606551 7.84905375 17.88398327 17.5357934 19.94140625 30.8984375 C21.33039067 44.17095531 18.35712669 55.59694382 10.1875 66.25 C9.68605469 66.90742187 9.18460938 67.56484375 8.66796875 68.2421875 C2.40908024 75.37256682 -8.36427335 80.74553115 -17.80224609 81.38476562 C-31.86722751 82.02669804 -42.87628332 80.85990955 -53.8125 71.25 C-54.41835937 70.74855469 -55.02421875 70.24710938 -55.6484375 69.73046875 C-64.0397295 62.20029187 -68.06721543 51.49471052 -69.0625 40.484375 C-69.6001238 27.64860672 -65.24980103 15.32084911 -56.58984375 5.80859375 C-41.13203347 -9.0612808 -18.33423404 -11.4510745 0 0 Z " fill="#0F75BC" transform="translate(1321.8125,1428.75)"/>
<path d="M0 0 C1.41703593 1.03405325 2.81432903 2.09586892 4.1875 3.1875 C4.80238281 3.66574219 5.41726562 4.14398437 6.05078125 4.63671875 C12.49769036 10.31171413 17.42211542 19.76696764 19.1875 28.1875 C20.09416321 43.05083136 18.75614089 54.64313811 9.328125 66.77734375 C1.4362116 75.66294697 -9.76191754 81.02976289 -21.5625 81.9375 C-33.78447697 82.61649872 -44.22155038 79.35848491 -54.125 71.9375 C-64.78652812 61.02802937 -69.12894617 49.53181923 -69.19970703 34.61401367 C-68.99746443 22.64875047 -63.94439775 13.60739295 -55.81640625 5.09765625 C-40.52881861 -9.53591694 -17.80326365 -11.16070141 0 0 Z " fill="#F1592A" transform="translate(2068.8125,671.8125)"/>
<path d="M0 0 C8.86066183 6.25458482 14.034281 15.97986647 16.5859375 26.390625 C18.52345865 38.60066396 16.76868314 50.51617365 10.0625 61 C2.86541227 70.89147484 -6.13920249 77.16026313 -18 80 C-32.56697819 81.57434087 -44.84271548 79.26789013 -56.58984375 70.140625 C-64.30956926 63.28420753 -70.15535964 53.2176468 -71.22265625 42.83374023 C-71.98699475 27.40365672 -69.66658823 15.81199368 -59 4 C-41.92852814 -11.41605641 -19.10364664 -12.29406162 0 0 Z " fill="#E5D41B" transform="translate(1258,1260)"/>
<path d="M0 0 C10.45437782 6.60456602 18.93663086 15.8312249 22 28 C23.333329 39.68137793 22.12364601 51.72022155 15.0625 61.5 C14.06470624 62.68643138 13.04579153 63.8556522 12 65 C11.236875 65.86625 10.47375 66.7325 9.6875 67.625 C-0.1634216 76.3304656 -9.78417441 80.22970728 -23 80 C-34.15829384 78.57583115 -45.54055504 73.00948838 -52.5546875 64.00390625 C-59.61000538 53.87724353 -63.6640911 43.60455731 -61.50390625 31.13671875 C-58.96161749 19.83286985 -53.85371694 9.73699076 -44.12890625 3.015625 C-30.82045641 -5.0259352 -14.21818163 -7.76372438 0 0 Z " fill="#F1592A" transform="translate(1416,883)"/>
<path d="M0 0 C7.03635448 5.16254269 11.43115148 12.86376116 13.125 21.375 C14.29085525 31.0472806 11.90588822 39.60938294 6.5 47.6875 C1.26855219 54.12112395 -6.64433141 58.42430569 -14.875 59.375 C-22.2553272 59.74251629 -22.2553272 59.74251629 -25.06494141 59.77075195 C-31.04349132 59.96508758 -34.46607173 61.82071753 -38.54199219 66.14257812 C-39.73115313 67.49725112 -40.90583417 68.86474198 -42.06738281 70.24316406 C-44.99822974 73.69969504 -48.13632505 76.95879272 -51.25 80.25 C-56.10866655 85.40828333 -60.91815554 90.59943982 -65.63671875 95.88671875 C-68.35515119 98.90878064 -71.11330864 101.89251133 -73.875 104.875 C-83.0038047 114.64887547 -83.0038047 114.64887547 -91.6875 124.8125 C-94.86136265 128.53045339 -96.38750657 130.15863732 -101.3125 130.875 C-104.875 130.375 -104.875 130.375 -107.8125 128.375 C-110.35756735 124.67308385 -110.61624386 121.70572372 -109.875 117.375 C-107.99609375 114.3125 -107.99609375 114.3125 -105.3125 111.375 C-104.82942383 110.83593018 -104.34634766 110.29686035 -103.84863281 109.74145508 C-102.21289392 107.93089852 -100.54711032 106.15199429 -98.875 104.375 C-97.600081 103.00407308 -96.3253473 101.63297381 -95.05078125 100.26171875 C-92.53213067 97.56069281 -89.99778806 94.87572076 -87.453125 92.19921875 C-84.3970594 88.96602608 -81.46080956 85.64300375 -78.54492188 82.28344727 C-76.08425566 79.4713087 -73.54584446 76.73485413 -71 74 C-69.95534359 72.87145055 -68.91107626 71.74254081 -67.8671875 70.61328125 C-67.36026367 70.06494629 -66.85333984 69.51661133 -66.33105469 68.95166016 C-62.8017288 65.12999909 -59.3082202 61.2832968 -55.875 57.375 C-55.09382813 56.50746094 -54.31265625 55.63992188 -53.5078125 54.74609375 C-52.76273438 53.88113281 -52.01765625 53.01617188 -51.25 52.125 C-50.57710937 51.35671875 -49.90421875 50.5884375 -49.2109375 49.796875 C-47.4282722 46.56514258 -47.89655098 44.86811025 -48.875 41.375 C-49.390625 40.405625 -49.90625 39.43625 -50.4375 38.4375 C-53.48403029 31.55234155 -53.09194695 22.93659808 -50.703125 15.9453125 C-49.25284157 12.94756169 -47.68634261 10.16766665 -45.875 7.375 C-45.26591797 6.43527344 -45.26591797 6.43527344 -44.64453125 5.4765625 C-34.18581276 -8.58737977 -13.94353902 -8.45062971 0 0 Z " fill="#0F75BC" transform="translate(2068.875,864.625)"/>
<path d="M0 0 C9.84909086 7.49873963 17.31276842 16.30831446 19.6875 28.6484375 C21.18920562 39.94877231 19.18141885 50.36425885 13 60 C6.6572398 68.05842484 -1.33436705 72.77812235 -11 76 C-24.14200297 76.80731337 -34.49972233 76.23532427 -45.12109375 67.6953125 C-53.44747961 60.1825236 -59.42642598 51.241353 -60.22265625 39.80078125 C-60.53131136 27.38747787 -57.97386232 17.73451441 -50 8 C-36.94177471 -4.10521817 -16.19989711 -9.51743955 0 0 Z " fill="#F1592A" transform="translate(1432,1453)"/>
<path d="M0 0 C7.04178821 5.43821268 12.50845123 14.14905123 14 23 C14.93589039 36.76219141 13.02434608 48.02607359 4 59 C-2.75443265 66.2859715 -9.45736151 70.75801913 -19.5078125 71.33984375 C-30.52724315 71.68450772 -41.14790964 71.34535158 -50 64 C-57.7046853 56.63090898 -65.41325435 46.84892541 -66.23828125 35.8125 C-66.47542289 23.63090816 -64.08044999 13.4676517 -56 4 C-39.72154201 -11.82784324 -18.33717947 -13.04939248 0 0 Z " fill="#072840" transform="translate(1364,1322)"/>
<path d="M0 0 C7.90829796 7.19624814 11.57393989 15.3792766 12.0859375 26.0234375 C11.80797971 35.65088474 7.36787284 42.95775174 1 50 C-7.55693469 57.24159507 -15.18082072 58.30195632 -26.01171875 57.74609375 C-31.58244829 57.59553349 -34.6228449 58.21231851 -39 62 C-40.8083486 63.92927161 -42.47507352 65.82276609 -44.125 67.875 C-45.08408438 69.0369134 -46.04374013 70.19835536 -47.00390625 71.359375 C-47.4952002 71.95814453 -47.98649414 72.55691406 -48.49267578 73.17382812 C-50.98047621 76.18787853 -53.51906803 79.15786739 -56.0625 82.125 C-56.56241455 82.70894531 -57.0623291 83.29289063 -57.57739258 83.89453125 C-61.55716943 88.52497928 -65.639437 93.05008256 -69.765625 97.55078125 C-71.72562883 99.69924699 -73.65344491 101.86883807 -75.5625 104.0625 C-92.53126183 123.55852423 -92.53126183 123.55852423 -99.4375 124.4375 C-103 124 -103 124 -105.4375 121.375 C-107.15390587 117.66756331 -107.53556127 116.01916621 -107 112 C-105.32196646 109.59600869 -103.73059576 107.62113458 -101.75 105.5 C-100.6440833 104.26602631 -99.53862763 103.03163932 -98.43359375 101.796875 C-97.86366699 101.16974609 -97.29374023 100.54261719 -96.70654297 99.89648438 C-94.01164364 96.90163774 -91.41782382 93.82265405 -88.8125 90.75 C-85.36858678 86.71738366 -81.88195399 82.73518121 -78.3125 78.8125 C-75.3208184 75.52057795 -72.47475577 72.15408693 -69.6875 68.6875 C-65.69922768 63.74260505 -61.46210283 59.09063604 -57.07299805 54.50268555 C-54.26248279 51.52802538 -51.82383596 48.67890199 -50 45 C-50.14932324 41.49090379 -50.83051282 39.30733097 -52.52734375 36.23046875 C-55.66733179 29.34248438 -54.9873754 20.75164615 -52.5 13.6875 C-47.84220898 3.75087915 -40.28655438 -2.35488095 -30.1484375 -6.03515625 C-18.71011143 -9.44892023 -9.41237469 -7.24399485 0 0 Z " fill="#D82027" transform="translate(2231,924)"/>
<path d="M0 0 C7.093437 5.73683155 11.46845245 14.08880026 13.41015625 22.94921875 C14.26817081 32.83591337 14.70616457 43.2380275 9.41015625 51.94921875 C8.98605469 52.65046875 8.56195312 53.35171875 8.125 54.07421875 C1.90966884 63.21543003 -6.75394977 68.87059664 -17.58984375 70.94921875 C-29.71596214 72.28874887 -40.3120723 71.01173719 -50.40234375 63.69921875 C-59.31776754 56.20071053 -64.26726057 47.12965217 -65.46484375 35.51171875 C-66.02132937 23.6585751 -63.00227325 14.567863 -56.46484375 4.76171875 C-41.74475434 -11.37993693 -17.26685571 -11.85077723 0 0 Z " fill="#F1592A" transform="translate(2111.58984375,1503.05078125)"/>
<path d="M0 0 C9.73433439 6.90876417 14.60533174 16.09813619 17.265625 27.46484375 C18.54723764 40.0246476 16.21535731 50.26966152 8.578125 60.52734375 C0.87155981 68.8721338 -8.29303228 72.94525325 -19.53125 73.75 C-31.67259202 74.07775923 -40.8135463 71.06269445 -50.421875 63.52734375 C-58.73762378 55.22881184 -61.72406517 43.9413649 -61.73657227 32.52099609 C-61.49473886 20.60676559 -56.85018123 12.1634936 -48.73046875 3.78125 C-35.75901312 -8.28732009 -14.76733979 -8.97949532 0 0 Z " fill="#D82027" transform="translate(2287.421875,1248.47265625)"/>
<path d="M0 0 C8.59588225 7.6215775 13.5174912 17.67200154 14.375 29.05859375 C14.62761994 40.83866033 12.2136274 50.11042783 4.13671875 58.89453125 C-4.19581137 67.33078581 -13.35041942 71.82247313 -25.23828125 72.20703125 C-36.44520642 71.9291736 -46.23945089 67.50894146 -54.1953125 59.56640625 C-62.94467168 49.24248707 -65.73210026 38.22756145 -64.86328125 24.89453125 C-63.2620234 14.16610363 -56.82864313 5.79922532 -48.30078125 -0.60546875 C-32.94254318 -10.99299076 -15.24543644 -10.81139568 0 0 Z " fill="#9F1F63" transform="translate(1840.86328125,1625.10546875)"/>
<path d="M0 0 C8.66960372 6.81183149 15.21493638 15.16955707 17.625 26.0625 C18.8481543 39.03618154 17.0242313 49.90656673 8.625 60.0625 C1.4637848 67.65527619 -6.59493226 72.63257886 -17.1328125 73.30078125 C-29.64464219 73.61898794 -38.83203411 71.68566195 -48.375 63.0625 C-56.42318768 55.25015664 -61.30988671 46.97627651 -61.71923828 35.6315918 C-61.90870357 22.88779527 -58.31360228 13.8753935 -49.33984375 4.55078125 C-34.73951174 -7.70272532 -16.55137522 -9.5017154 0 0 Z " fill="#0A805D" transform="translate(2203.375,1383.9375)"/>
<path d="M0 0 C7.7974923 6.44873688 12.97568064 13.87207073 15.16796875 23.79296875 C16.02343323 33.65027951 16.50607076 44.13444019 11.16796875 52.79296875 C10.69359375 53.56769531 10.21921875 54.34242187 9.73046875 55.140625 C5.35633418 61.43895818 -0.10551593 65.24206152 -6.83203125 68.79296875 C-7.85876953 69.33630859 -7.85876953 69.33630859 -8.90625 69.890625 C-17.60746508 73.5659909 -30.58226532 73.43492909 -39.39453125 70.23046875 C-50.34220542 64.81306297 -57.63630313 56.59678318 -61.76953125 45.04296875 C-64.51787787 34.22135395 -63.72415895 22.83698314 -58.83203125 12.79296875 C-52.84240327 2.96694613 -43.6741338 -4.01824849 -32.44921875 -6.796875 C-20.59652863 -8.65438614 -9.8033471 -7.02717801 0 0 Z " fill="#9F1F63" transform="translate(1985.83203125,1585.20703125)"/>
<path d="M0 0 C10.75873383 5.9864428 17.90969853 14.48929413 21.79296875 26.171875 C24.24036151 37.42441265 23.38906281 48.34019045 17.4921875 58.38671875 C11.37896197 67.78624471 0.73253041 73.42101294 -9.98046875 75.9765625 C-20.15071001 77.62706533 -29.46281748 76.16286619 -38.1953125 70.63671875 C-47.15561621 64.16889389 -54.56854663 55.69910298 -56.5078125 44.38671875 C-57.44775865 30.03446405 -54.83141977 20.28425916 -45.7265625 9.22265625 C-34.51186705 -3.04916213 -15.2401791 -6.60098943 0 0 Z " fill="#9F1F63" transform="translate(2506.5078125,971.61328125)"/>
<path d="M0 0 C3.79094711 2.74476326 6.21382085 5.4059957 8.6875 9.375 C9.26886719 10.29023437 9.85023437 11.20546875 10.44921875 12.1484375 C16.04830666 22.44398958 16.11840617 33.84264473 13.08984375 44.91015625 C9.49482322 55.10249043 3.24350296 61.59467571 -6 67 C-15.87568385 71.72386878 -26.59122411 72.6216281 -37.125 69.5 C-48.90630321 65.0586357 -56.56876489 57.59522863 -61.8125 46.3125 C-65.39284841 36.32521232 -65.30829431 24.36518077 -60.9296875 14.6171875 C-58.51678248 10.01901001 -55.92575569 6.45840382 -52 3 C-51.49855469 2.50757813 -50.99710938 2.01515625 -50.48046875 1.5078125 C-36.58469641 -11.57439003 -15.13240693 -10.43308524 0 0 Z " fill="#9F1F63" transform="translate(1520,779)"/>
<path d="M0 0 C8.29498148 7.12580754 13.5669208 14.40035742 14.49609375 25.5625 C14.53756205 38.65265955 12.32303248 48.02421465 3.44921875 57.890625 C-4.85473736 65.88383015 -16.00194294 69.35111044 -27.3828125 69.16015625 C-38.00522706 68.23497821 -46.89293072 62.65840938 -54.16796875 55.078125 C-61.80498801 45.14453193 -63.76983829 35.19209038 -62.8046875 22.94921875 C-60.12138106 12.52186211 -53.44162593 3.31881171 -44.44921875 -2.6015625 C-30.00435563 -10.38663182 -13.37632346 -9.78073791 0 0 Z " fill="#072840" transform="translate(1810.8046875,697.05078125)"/>
<path d="M0 0 C8.7298485 6.2252651 14.28146038 15.02765817 16.60546875 25.4921875 C17.84119966 36.83319456 16.57070462 46.54720939 9.7734375 56.0546875 C2.43007242 64.86093201 -6.30444757 69.72170334 -17.7578125 70.8125 C-30.06064153 71.21587144 -40.16254512 67.74907459 -49.39453125 59.4921875 C-52.11717163 56.34910171 -54.32350064 53.09347962 -56.39453125 49.4921875 C-56.75546875 48.89148438 -57.11640625 48.29078125 -57.48828125 47.671875 C-61.44340411 39.50527872 -60.5982455 27.05988201 -57.95703125 18.5546875 C-53.38614077 7.96438491 -43.86777213 -0.04456626 -33.33203125 -4.3828125 C-21.91426156 -7.72801871 -9.98095573 -6.2849085 0 0 Z " fill="#E5D41B" transform="translate(1655.39453125,716.5078125)"/>
<path d="M0 0 C7.03206881 5.60031426 13.50360257 13.90775911 15 23 C16.14133872 41.16786718 16.14133872 41.16786718 11 49 C10.57589844 49.68191406 10.15179687 50.36382813 9.71484375 51.06640625 C3.08641354 60.79672024 -5.54751246 65.70129282 -17 68 C-27.34794309 69.2157797 -36.44423332 66.77985514 -44.8984375 60.73046875 C-51.69370094 55.13511243 -57.37947379 47.82959609 -59 39 C-60.14181788 20.82450548 -60.14181788 20.82450548 -55 13 C-54.56429688 12.30648437 -54.12859375 11.61296875 -53.6796875 10.8984375 C-48.74292802 3.69562449 -42.26469689 -1.14492289 -34 -4 C-22.5060317 -5.98123414 -9.79312892 -7.34037086 0 0 Z " fill="#0A805D" transform="translate(1956,723)"/>
<path d="M0 0 C7.91380248 5.00340564 13.77428355 11.13568053 16.49609375 20.21875 C18.66883088 32.21091155 17.48957158 43.9060992 10.875 54.25 C4.91123122 62.21000937 -3.39933299 66.6875254 -13 69 C-23.3461307 70.32886082 -32.32920632 67.9393042 -40.75 61.8125 C-49.2453559 54.65451676 -54.95775045 46.19831348 -56.37890625 35.01953125 C-56.81434566 24.16163882 -53.35352136 15.52058208 -46.34765625 7.296875 C-33.92524124 -4.85683553 -15.52468254 -8.36512213 0 0 Z " fill="#072840" transform="translate(2229,640)"/>
<path d="M0 0 C6.91393982 6.379992 11.60114012 14.07594997 12.23828125 23.5390625 C12.54492666 34.66824663 11.25024407 42.3812804 4 51.25 C-2.21236249 57.79204011 -10.55936652 62.41622787 -19.62890625 63.23828125 C-29.41845118 63.48595283 -38.30161281 61.32978502 -46 55 C-53.79756683 47.5686594 -58.00524239 40.57254068 -58.46899414 29.74243164 C-58.63525486 17.71798511 -55.81156166 10.00700046 -47.36328125 1.19921875 C-33.89476288 -11.33429504 -14.67694233 -10.7094513 0 0 Z " fill="#0F75BC" transform="translate(1402,1116)"/>
<path d="M0 0 C7.38276271 6.60562979 11.35231536 16.26468199 12.21875 25.96875 C12.03342325 36.84125288 7.40328787 45.71107671 0.09375 53.3671875 C-6.11448011 59.30005256 -12.88174279 62.61054035 -21.53125 62.90625 C-32.79106837 62.41462413 -43.68017499 58.56947263 -51.46875 50.15625 C-55.70569176 44.73104412 -58.52044849 38.34836806 -59.09375 31.46875 C-59.15691406 30.83839844 -59.22007813 30.20804688 -59.28515625 29.55859375 C-59.84207465 19.65981833 -56.5387569 9.88022513 -50.0625 2.40234375 C-35.76566515 -11.63919048 -15.81669386 -11.56743282 0 0 Z " fill="#072840" transform="translate(1349.09375,1027.53125)"/>
<path d="M0 0 C6.74860496 5.65423659 11.94237343 11.80183416 13.17651367 20.72631836 C13.31562501 22.95634548 13.3474348 25.15266309 13.31640625 27.38671875 C13.30665771 28.17498047 13.29690918 28.96324219 13.28686523 29.77539062 C12.96509362 40.41239662 9.81295448 47.689481 2.390625 55.40625 C-5.71981059 62.40670374 -14.03053197 63.9488969 -24.4453125 63.8515625 C-35.00739231 63.05463618 -43.17709581 57.88569914 -50.37109375 50.38671875 C-56.63671579 42.58036998 -58.18000714 33.32668032 -57.12109375 23.57421875 C-55.41996279 13.98602604 -50.60389541 5.9272245 -42.98046875 -0.14453125 C-30.267115 -8.9049935 -12.86529705 -8.94393303 0 0 Z " fill="#0A805D" transform="translate(1440.12109375,993.42578125)"/>
<path d="M0 0 C9.14279562 7.38456569 12.96093208 16.83254127 14.25 28.25 C13.7617403 38.15760302 9.90102632 47.46787298 2.8125 54.375 C-0.03862106 56.70820159 -2.95839538 58.6074901 -6.1875 60.375 C-6.77789063 60.7153125 -7.36828125 61.055625 -7.9765625 61.40625 C-15.16304835 64.82537102 -25.33740809 64.59268265 -32.94140625 62.68359375 C-35.19025622 61.74885437 -37.14182375 60.69359855 -39.1875 59.375 C-40.21230469 58.73884766 -40.21230469 58.73884766 -41.2578125 58.08984375 C-48.39843628 53.21630014 -54.38943851 46.39213232 -56.75 37.953125 C-58.5751938 27.19751866 -57.46867209 18.19603844 -51.6796875 8.97265625 C-47.68769755 3.39315402 -43.188461 -0.34601606 -37.1875 -3.625 C-36.58550781 -3.9653125 -35.98351563 -4.305625 -35.36328125 -4.65625 C-23.68928365 -10.12606233 -10.19730913 -6.85010079 0 0 Z " fill="#E5D41B" transform="translate(1408.1875,1242.625)"/>
<path d="M0 0 C8.56208824 5.88643566 14.52926546 13.82568517 16.640625 24.125 C18.06087976 35.48703807 15.93897633 44.79251218 9 54 C1.60539152 62.07569084 -6.26239516 66.40687249 -17.234375 67.03515625 C-27.1933182 66.90855951 -35.94494352 63.50914716 -43.33203125 56.83203125 C-51.13005778 48.26698571 -53.52938488 38.92049076 -53.30078125 27.5625 C-52.41343121 17.0525878 -47.69167383 10.02007793 -40 3 C-28.57176969 -5.83561908 -12.71121845 -7.15006038 0 0 Z " fill="#0F75BC" transform="translate(1510,880)"/>
<path d="M0 0 C7.97739685 5.82567431 14.70054785 12.89223513 16.71875 22.80859375 C18.13264523 33.82519405 16.43938208 43.67281973 9.9375 52.82421875 C3.83567634 59.6764683 -3.82747543 64.76520088 -13.1015625 65.37109375 C-24.08338153 65.66727887 -33.24621429 64.46785 -42.375 57.75 C-49.76927648 50.00361512 -53.7639102 41.76145219 -54.09375 30.91796875 C-53.53288224 19.99506908 -50.04482399 12.12222406 -42.51171875 4.203125 C-31.13714255 -5.77395273 -13.16963208 -7.47682309 0 0 Z " fill="#0A805D" transform="translate(1736,768)"/>
<path d="M0 0 C7.07630673 6.46393403 11.54844809 14.70788329 12.23828125 24.3203125 C12.44984409 35.16569181 10.73437061 43.53038304 3.8359375 52.1796875 C-4.05925207 60.00768396 -13.60240685 62.4264269 -24.37988281 62.44042969 C-33.5231674 62.22395072 -41.15376755 59.07811856 -48 53 C-49.94921875 50.6328125 -49.94921875 50.6328125 -51.6875 48.125 C-52.26886719 47.30257812 -52.85023437 46.48015625 -53.44921875 45.6328125 C-58.57044923 36.93833053 -58.27379837 25.66820622 -56.41796875 15.953125 C-53.46598525 7.48807643 -46.95975416 0.25422161 -39.125 -4 C-25.74822803 -9.79179187 -11.66454581 -9.26181366 0 0 Z " fill="#D82027" transform="translate(1616,812)"/>
<path d="M0 0 C6.95670928 6.14546363 10.8414055 14.39416121 11.65625 23.5234375 C12.06292563 33.58083876 9.25639188 41.74945588 2.4453125 49.16015625 C-4.58274875 56.40648027 -10.31812267 59.24747219 -20.4296875 59.59765625 C-30.03977456 59.38158363 -38.38489694 56.15167817 -45.3671875 49.41015625 C-52.93574778 41.33702528 -54.73649857 33.15972625 -54.5546875 22.16015625 C-53.2786197 11.85658756 -48.03866345 4.91031844 -40.3046875 -1.71484375 C-27.40394018 -11.10117428 -12.40430519 -8.93337576 0 0 Z " fill="#0A805D" transform="translate(1454.5546875,1363.83984375)"/>
<path d="M0 0 C8.16371254 5.06666352 13.99735281 11.03838637 16.921875 20.26953125 C18.77032799 29.76617045 18.00421243 39.53123017 12.90625 47.79296875 C7.62988482 55.162741 1.11071079 60.02407264 -7.65234375 62.45703125 C-17.49953384 63.54414081 -26.19760461 62.28861482 -34.3828125 56.5390625 C-41.15418673 50.88791562 -45.95320874 44.23589545 -47.65234375 35.45703125 C-48.62879725 24.53996093 -46.63743745 16.70070236 -39.65234375 8.20703125 C-29.09271452 -2.69655984 -14.18631496 -6.70238253 0 0 Z " fill="#0F75BC" transform="translate(1859.65234375,777.54296875)"/>
<path d="M0 0 C6.7125855 5.45635494 11.57819153 12.10876126 13.87890625 20.4921875 C14.7454884 29.46187549 14.42298678 37.70191605 8.95703125 45.08984375 C1.26116957 54.0993094 -6.12479851 58.83675346 -17.93359375 59.8046875 C-27.00702549 59.50223978 -35.26057162 56.42994934 -42.12109375 50.4921875 C-49.60185772 42.4384985 -51.81725832 34.31734625 -51.46484375 23.44140625 C-50.76609628 15.41375066 -47.82278749 9.19226328 -42.31640625 3.31640625 C-30.13860488 -6.80286998 -13.15993062 -9.35494147 0 0 Z " fill="#D82027" transform="translate(1982.12109375,822.5078125)"/>
<path d="M0 0 C7.7486333 6.54406251 12.42677204 14.22678164 13.31640625 24.40625 C13.54126558 35.74290801 10.16689122 43.52774677 2.5546875 51.76953125 C-3.27153194 57.35823095 -10.85667491 60.19904029 -18.88671875 60.58203125 C-28.59695264 60.07500954 -35.78742329 56.19810638 -42.71875 49.53125 C-49.71584541 41.6264233 -51.52504396 33.60880734 -51.29296875 23.30859375 C-50.75651951 14.8058733 -46.10870345 7.20906846 -39.87890625 1.546875 C-27.57446853 -7.50050568 -13.0043061 -8.64020879 0 0 Z " fill="#9F1F63" transform="translate(2167.88671875,1299.91796875)"/>
<path d="M0 0 C7.51949183 4.97007508 11.32443464 11.43027629 14.375 19.75 C16.28573592 29.19128335 14.40386477 38.00864083 9.80078125 46.3359375 C4.90596158 53.57729761 -2.10595127 58.13872145 -10.375 60.75 C-20.24001688 61.68952542 -28.47724524 60.95370207 -36.77734375 55.01171875 C-45.33531869 47.73555503 -48.37898287 41.31745372 -49.8125 30.24609375 C-50.35234534 20.90002128 -47.04469093 13.31331215 -41.75 5.8125 C-30.61295005 -5.57766472 -14.02056932 -7.49834245 0 0 Z " fill="#D82027" transform="translate(2354,1033)"/>
<path d="M0 0 C7.27920278 7.71229036 9.65727002 16.46336373 9.51953125 26.78125 C8.94377178 35.38505191 5.27648557 41.73764275 -0.6875 47.875 C-7.44604955 53.5359019 -15.5824011 57.58602858 -24.58984375 57.15625 C-34.96324343 55.76540312 -42.86474228 51.00059713 -49.3671875 42.828125 C-55.04764197 34.42508585 -55.72972904 25.83527137 -54.6875 15.875 C-52.77102881 7.44933081 -48.15960268 0.69851462 -40.84765625 -3.91796875 C-27.21404693 -11.15598833 -11.78720914 -10.75013709 0 0 Z " fill="#072840" transform="translate(2011.6875,1498.125)"/>
<path d="M0 0 C6.08075909 5.03547157 11.07289075 11.32372516 12.48828125 19.26953125 C13.25290986 30.73896047 12.6744235 39.33070559 5.23828125 48.51953125 C-0.50921608 54.6977832 -7.34756849 58.74887835 -15.84375 59.60546875 C-26.97980533 59.73045254 -33.67429321 57.61661468 -41.796875 49.9765625 C-48.07887463 43.72318246 -51.65175889 36.18748605 -51.94921875 27.20703125 C-51.39317287 15.88880698 -46.7579306 8.13046604 -38.69921875 0.45703125 C-27.60887531 -8.72552154 -11.6094822 -7.99844575 0 0 Z " fill="#D82027" transform="translate(2107.51171875,1406.73046875)"/>
<path d="M0 0 C6.86667246 5.59758448 11.13202217 12.50441783 12.4921875 21.3046875 C13.3298872 31.93702989 11.42815431 39.93472348 4.5859375 48.2265625 C-2.19946912 54.96133175 -10.74482575 58.57207453 -20.2578125 58.6796875 C-29.1027218 58.53056363 -36.385356 56.25265495 -42.91015625 50.12890625 C-49.93070607 42.11277724 -52.90367806 33.85555388 -52.3828125 23.3046875 C-51.33275815 13.90192805 -47.56927459 6.64756636 -40.5078125 0.3046875 C-28.3264335 -8.11571685 -12.3722896 -8.36382194 0 0 Z " fill="#0F75BC" transform="translate(2189.5078125,1173.6953125)"/>
<path d="M0 0 C8.20361551 4.74389552 13.94589616 11.30647253 17.12109375 20.2265625 C19.41430812 29.66745804 18.63437221 38.58357031 14.12109375 47.2265625 C8.63219722 55.54385513 1.51751504 59.56349297 -8.00390625 62.0390625 C-8.95265625 62.1009375 -9.90140625 62.1628125 -10.87890625 62.2265625 C-11.52988281 62.2884375 -12.18085937 62.3503125 -12.8515625 62.4140625 C-21.18777584 62.88453662 -28.80915387 60.28043593 -35.25390625 54.9765625 C-41.00174904 49.48784377 -45.47439595 42.60562168 -46.21484375 34.58984375 C-46.45586221 23.82479381 -45.23223144 14.94893593 -37.58203125 6.7578125 C-27.63130141 -2.18871525 -12.58672249 -5.09179322 0 0 Z " fill="#072840" transform="translate(1756.87890625,1554.7734375)"/>
<path d="M0 0 C8.59218167 5.66610405 13.44833128 12.4084333 16.62890625 22.31640625 C17.9943258 29.96875757 17.78480328 38.40972713 13.984375 45.30859375 C8.19057452 53.44925012 0.96562875 59.37306546 -9.015625 61.30859375 C-19.46915397 62.25609043 -29.15138 60.31655033 -37.5234375 53.70703125 C-43.75740059 47.86473076 -46.49670746 40.75367364 -47.30078125 32.31640625 C-47.59338423 22.31701743 -45.44083779 15.12367666 -39.04296875 7.38671875 C-29.13489036 -2.76953887 -12.99587218 -7.05978771 0 0 Z " fill="#D82027" transform="translate(1527.015625,1458.69140625)"/>
<path d="M0 0 C6.19750624 3.87638698 10.51512127 9.83369221 12.54199219 16.88574219 C14.48641177 25.86158097 14.41012119 37.02010418 9.546875 44.95703125 C4.19858683 52.02055325 -2.07312718 57.33593137 -11 59 C-22.44123845 59.76274923 -30.98774835 59.13043046 -40.25 51.875 C-45.83977847 46.72035399 -49.71152882 39.16628053 -50.23828125 31.55859375 C-50.50105602 21.7966893 -49.77209231 13.79180727 -43.75 5.6875 C-32.08016573 -5.71711077 -14.40778205 -7.63184495 0 0 Z " fill="#D82027" transform="translate(1892,1547)"/>
<path d="M0 0 C7.88986373 4.66576659 13.40910978 10.55266642 15.9296875 19.42578125 C17.71650467 27.74771677 14.99062855 35.06366505 10.6640625 42.078125 C5.90434369 48.81224569 -0.57240463 53.49410065 -8.6484375 55.390625 C-17.2165373 56.2066345 -24.92046422 53.83026297 -31.6484375 48.390625 C-38.59920251 41.77275104 -42.11210057 36.02216271 -43.0234375 26.453125 C-42.62282116 18.05687415 -39.72780794 10.28080341 -33.6484375 4.390625 C-23.30718921 -3.00288429 -11.98481993 -5.5434672 0 0 Z " fill="#F7941D" transform="translate(1795.6484375,832.609375)"/>
<path d="M0 0 C6.0222131 5.43383596 10.53179358 11.3081969 11.28515625 19.5234375 C11.6436855 28.05208785 9.96753059 35.25357101 4.7890625 42.15234375 C-2.26780569 49.04882857 -10.49635086 52.43571008 -20.4140625 52.97265625 C-28.19600643 52.51009315 -34.48242494 48.72539323 -39.7734375 43.15234375 C-44.95882363 36.72487675 -47.74350485 29.65526206 -47.33984375 21.34765625 C-45.94735446 12.13138692 -41.24419643 5.07723306 -34.046875 -0.6953125 C-23.38152175 -7.98259569 -10.44806652 -7.7695622 0 0 Z " fill="#F7941D" transform="translate(1595.9609375,901.16015625)"/>
<path d="M0 0 C6.452219 6.6314473 10.0741195 13.45316046 10.3125 22.75 C9.88607629 31.27847416 6.65934829 38.44155382 0.375 44.25 C-6.53160814 49.77788787 -13.92321772 51.8913054 -22.75 51.3125 C-32.01120587 49.52684266 -38.66679478 45.61404943 -44.125 37.875 C-48.2514034 31.18080753 -49.80742047 24.73289063 -48.28515625 16.9296875 C-46.05241568 8.28937783 -42.24485495 2.59953451 -34.625 -2.125 C-23.31638851 -8.58958009 -10.76515157 -6.60588846 0 0 Z " fill="#F7941D" transform="translate(1480.75,1285.6875)"/>
<path d="M0 0 C1.051875 0.66 2.10375 1.32 3.1875 2 C8.42866662 6.83009473 11.47054265 13.59419989 12.55078125 20.54296875 C12.92899281 30.45211155 10.39168147 37.6018857 3.6875 44.875 C-2.79942032 50.86727498 -10.02596511 53.35149487 -18.8203125 53.21875 C-28.24061301 52.2733435 -35.49468437 47.33089215 -41.453125 40.19921875 C-45.89001253 33.89121955 -47.02232698 26.56289619 -46 19 C-43.80540362 10.39143445 -39.00524374 3.16824142 -31.3125 -1.4375 C-21.64804227 -5.99620648 -9.07411503 -5.76225448 0 0 Z " fill="#072840" transform="translate(1457,1176)"/>
<path d="M0 0 C7.73210324 4.54530864 12.19007345 10.63982977 14.90234375 19.140625 C16.90060676 27.79582338 15.83036227 35.22212015 11.5625 43 C7.26093494 49.70730358 1.04187957 53.50687348 -6.4375 56 C-16.23610939 56.90976434 -23.56300786 55.21900424 -31.75 49.8125 C-38.01603013 43.2550266 -41.3749419 35.24918701 -41.8125 26.1875 C-41.62564979 18.00346058 -38.34848809 10.65398861 -32.4375 5 C-22.51876606 -1.75554795 -11.6359882 -5.33465305 0 0 Z " fill="#072840" transform="translate(1514.4375,972)"/>
<path d="M0 0 C4.96169603 3.90957735 8.21705407 10.02616221 10.1875 15.9375 C10.91271732 26.51853953 10.92593211 35.14608298 3.9375 43.6875 C-5.55656759 51.45537348 -13.6214149 53.04014896 -25.8125 51.9375 C-34.69014949 49.18039494 -39.97893364 43.60190193 -44.796875 35.90234375 C-47.99035634 29.72418563 -47.78943819 21.73906383 -46.09375 15.140625 C-42.88098578 6.59052666 -38.07026171 0.9899201 -29.8125 -3.0625 C-20.02468989 -6.6675522 -8.89264981 -5.56037083 0 0 Z " fill="#0F75BC" transform="translate(1691.8125,852.0625)"/>
<path d="M0 0 C6.74195459 3.90726914 12.0496899 8.87944702 14.96875 16.21484375 C16.75697914 23.63386585 17.08041125 33.03278942 13.79296875 40.1015625 C8.78751729 47.96966346 3.04367721 53.01189684 -5.875 55.6875 C-14.73009103 56.5730091 -22.20491613 55.5021822 -29.71484375 50.32421875 C-36.41230341 44.69935039 -40.52506505 38.72410179 -41.6328125 29.87890625 C-42.09616167 21.21427678 -39.14341191 13.61557649 -33.625 7 C-24.97757194 -2.03535006 -11.60363102 -5.43641699 0 0 Z " fill="#F7941D" transform="translate(1900.375,852.0625)"/>
<path d="M0 0 C6.67995123 4.5236161 11.69223027 10.58566672 13.61328125 18.5390625 C14.94751759 27.02965736 13.35005181 33.71954848 9.25 41.1875 C4.60596527 46.99254342 -0.5484025 51.54807843 -8 53 C-17.60341914 53.92936314 -26.11386628 53.37774107 -34.02734375 47.4921875 C-39.73340489 42.30485919 -42.65734396 36.83930518 -43.34375 29.1484375 C-43.73781382 18.36599256 -42.44174336 10.82051879 -34.96875 2.76171875 C-25.18133021 -5.9964684 -11.14721088 -6.25873302 0 0 Z " fill="#F7941D" transform="translate(1532,1376)"/>
<path d="M0 0 C6.54243072 6.42323664 8.04277865 12.73165224 8.25 21.6875 C8.19060192 30.70951184 6.17746291 38.2683411 -0.34375 44.8671875 C-7.91143791 50.95044432 -15.91770201 51.7550077 -25.375 50.875 C-33.25884949 49.02843217 -40.33480959 44.66880748 -44.72265625 37.75 C-48.62764086 30.13597983 -49.73003413 22.58083647 -47.7265625 14.14453125 C-44.97263663 6.55358174 -40.48849671 0.24795393 -33.25 -3.5625 C-22.4790284 -8.22855068 -9.32956564 -7.44637554 0 0 Z " fill="#F7941D" transform="translate(1475.375,1073.125)"/>
<path d="M0 0 C6.93354762 5.36392097 10.94867947 11.5935155 12.375 20.28515625 C12.76227095 27.14711343 10.58192047 33.57487006 6.45703125 39.046875 C0.67179304 45.24250769 -6.24723711 48.67777879 -14.6875 49.25 C-23.12989256 49.06239128 -28.99280929 45.96553753 -35.05078125 40.171875 C-40.075112 34.5736227 -42.08970347 28.49664691 -42 21 C-41.42532122 13.94490088 -38.68596181 8.28037557 -34 3 C-24.1400743 -5.15109975 -11.14888158 -7.34954205 0 0 Z " fill="#072840" transform="translate(2080,1327)"/>
<path d="M0 0 C7.23776117 4.8027523 12.70338601 10.40839558 15.0625 18.9375 C16.29086785 26.97887718 14.19881063 33.19966904 9.77734375 39.87890625 C5.37550795 45.55592568 -0.84607103 49.55550892 -7.9375 50.9375 C-15.71843315 51.86091814 -22.64689412 50.09813716 -28.984375 45.4296875 C-34.44930091 40.40849489 -37.4363472 34.97508955 -38.3515625 27.6015625 C-38.71802499 18.71002515 -37.31242363 11.83201076 -31.29296875 5.09765625 C-22.88128103 -2.66843918 -10.5589832 -5.48777343 0 0 Z " fill="#F7941D" transform="translate(2232.9375,1043.0625)"/>
<path d="M0 0 C5.62259906 4.83751336 9.36939068 10.1622556 10.2578125 17.62109375 C10.63327611 26.26690441 9.10001172 32.93054468 3.2578125 39.48046875 C-2.44673621 44.73431948 -9.27925182 47.63671875 -17.09765625 47.63671875 C-26.92009984 46.55099096 -33.17396543 42.30090125 -39.4296875 34.859375 C-43.56554862 29.34812213 -43.88395578 23.31043597 -43.09765625 16.63671875 C-41.09310875 8.99438141 -37.48217033 2.61911791 -30.88671875 -1.8671875 C-20.44652723 -7.9544088 -9.8191644 -7.33329999 0 0 Z " fill="#0A805D" transform="translate(1819.09765625,1504.36328125)"/>
<path d="M0 0 C7.06645102 7.47024822 8.66885946 15.57977847 8.45703125 25.57421875 C7.94885696 32.62237518 5.44621014 36.36889418 0.375 41.125 C-7.29113433 47.27475611 -14.17528106 48.18318933 -23.8125 47.3125 C-29.26630983 46.17038723 -34.21173302 43.62528305 -37.8125 39.3125 C-42.28497708 31.86643006 -44.80472747 25.03866483 -43.8125 16.3125 C-41.05263964 6.67443841 -36.80211045 1.60513545 -28.25 -3.453125 C-18.53531988 -8.37273865 -8.85554407 -5.31332644 0 0 Z " fill="#F7941D" transform="translate(1921.8125,1473.6875)"/>
<path d="M0 0 C6.39594596 4.67005578 9.10908673 10.41383604 11 18 C11.92163458 25.6364008 9.3104714 33.27590022 4.65625 39.36328125 C-1.17915364 45.12987117 -8.0943079 48.09060873 -16.1875 48.3125 C-23.23102352 48.23726877 -28.32512095 46.1885374 -33.75 41.75 C-40.87257319 33.04463276 -42.74746249 26.27867507 -42 15 C-40.90414136 9.9316538 -38.7733845 5.5798776 -35 2 C-23.98828853 -4.48937254 -11.4225111 -7.38069948 0 0 Z " fill="#F7941D" transform="translate(2118,1227)"/>
<path d="M0 0 C6.86433021 7.30950644 8.73087906 14.00226744 8.46484375 23.984375 C7.61156181 30.75374509 4.68094485 36.0696571 -0.3203125 40.67578125 C-8.15819186 46.57508064 -15.22492521 47.25970763 -24.9453125 46.23828125 C-27.97586598 45.31778603 -30.36602044 44.05821968 -32.9453125 42.23828125 C-33.8528125 41.61953125 -34.7603125 41.00078125 -35.6953125 40.36328125 C-41.57151177 34.81353749 -44.00534023 28.82164631 -44.2578125 20.86328125 C-44.06009666 12.26845759 -41.01599488 5.38780366 -34.9453125 -0.76171875 C-24.25314364 -8.5030023 -10.11414129 -9.15959382 0 0 Z " fill="#0A805D" transform="translate(2017.9453125,1417.76171875)"/>
<path d="M0 0 C4.92740033 3.6216869 8.64949139 8.43512209 10.01953125 14.484375 C10.84383408 22.82792803 10.71656834 30.3240709 6.01953125 37.484375 C1.44309573 42.90383812 -3.98985391 47.14577738 -11.203125 47.7578125 C-20.67113217 48.00823792 -27.86322332 47.21973645 -35.07421875 40.546875 C-40.84930695 34.29841891 -42.45349763 29.1594698 -42.296875 20.69140625 C-41.65753468 14.21117904 -39.70606209 8.6186615 -35.60546875 3.546875 C-25.18251066 -4.64259207 -11.96035411 -7.06117092 0 0 Z " fill="#F7941D" transform="translate(2515.98046875,1113.515625)"/>
</svg>
