<svg width="1479" height="1041" viewBox="0 0 1479 1041" fill="none" xmlns="http://www.w3.org/2000/svg">
<g clip-path="url(#clip0_1791_3)">
<path d="M1479 0H0V1041H1479V0Z" fill="url(#paint0_linear_1791_3)"/>
<rect x="-285.235" y="847.279" width="954.697" height="942.751" rx="20.2701" transform="rotate(-47.2013 -285.235 847.279)" fill="url(#paint1_linear_1791_3)" stroke="url(#paint2_linear_1791_3)"/>
<g filter="url(#filter0_i_1791_3)">
<path d="M40.8145 902.137C74.5095 865.748 130.946 863.229 166.868 896.492C202.79 929.754 204.61 986.217 170.915 1022.61C137.22 1059 80.7839 1061.51 44.8619 1028.25C8.93997 994.989 7.11946 938.526 40.8145 902.137Z" fill="#353535" stroke="#FFB200"/>
<path d="M-108.99 763.424C-75.2947 727.035 -18.8584 724.516 17.0636 757.778C52.9855 791.041 54.8061 847.504 21.111 883.893C-12.584 920.282 -69.0203 922.801 -104.942 889.538C-140.864 856.276 -142.685 799.813 -108.99 763.424Z" fill="#353535" stroke="#FFB200"/>
<path d="M190.077 1040.35C223.772 1003.96 280.208 1001.44 316.13 1034.7C352.052 1067.97 353.872 1124.43 320.177 1160.82C286.482 1197.21 230.046 1199.73 194.124 1166.46C158.202 1133.2 156.382 1076.74 190.077 1040.35Z" fill="#353535" stroke="#FFB200"/>
<path d="M175.596 756.58C209.291 720.191 265.728 717.672 301.65 750.935C337.571 784.197 339.392 840.66 305.697 877.049C272.002 913.438 215.566 915.958 179.644 882.695C143.722 849.432 141.901 792.969 175.596 756.58Z" fill="#353535" stroke="#FFB200"/>
<path d="M25.211 617.419C58.906 581.03 115.342 578.511 151.264 611.774C187.186 645.036 189.007 701.5 155.312 737.889C121.617 774.278 65.1804 776.797 29.2584 743.534C-6.66354 710.271 -8.48405 653.808 25.211 617.419Z" fill="#353535" stroke="#FFB200"/>
<path d="M324.858 894.792C358.553 858.403 414.989 855.884 450.911 889.147C486.833 922.409 488.654 978.873 454.959 1015.26C421.264 1051.65 364.827 1054.17 328.905 1020.91C292.983 987.645 291.163 931.181 324.858 894.792Z" fill="#353535" stroke="#FFB200"/>
<path d="M474.12 1033C507.815 996.615 564.251 994.096 600.173 1027.36C636.095 1060.62 637.915 1117.08 604.22 1153.47C570.525 1189.86 514.089 1192.38 478.167 1159.12C442.245 1125.86 440.425 1069.39 474.12 1033Z" fill="#353535" stroke="#FFB200"/>
<path d="M308.649 612.89C342.344 576.501 398.78 573.982 434.702 607.245C470.624 640.507 472.445 696.97 438.75 733.359C405.055 769.748 348.618 772.267 312.696 739.005C276.774 705.742 274.954 649.279 308.649 612.89Z" fill="#353535" stroke="#FFB200"/>
<path d="M158.845 474.176C192.54 437.787 248.977 435.268 284.899 468.531C320.821 501.793 322.641 558.256 288.946 594.645C255.251 631.034 198.815 633.554 162.893 600.291C126.971 567.028 125.15 510.565 158.845 474.176Z" fill="#353535" stroke="#FFB200"/>
<path d="M457.911 751.101C491.606 714.713 548.042 712.193 583.964 745.456C619.886 778.719 621.706 835.182 588.011 871.571C554.316 907.96 497.88 910.479 461.958 877.216C426.036 843.954 424.216 787.49 457.911 751.101Z" fill="#353535" stroke="#FFB200"/>
<path d="M607.173 889.314C640.868 852.925 697.305 850.406 733.227 883.668C769.149 916.931 770.969 973.394 737.274 1009.78C703.579 1046.17 647.143 1048.69 611.221 1015.43C575.299 982.166 573.478 925.703 607.173 889.314Z" fill="#353535" stroke="#FFB200"/>
<path d="M443.43 467.333C477.125 430.944 533.562 428.425 569.484 461.687C605.405 494.95 607.226 551.413 573.531 587.802C539.836 624.191 483.4 626.71 447.478 593.448C411.556 560.185 409.735 503.722 443.43 467.333Z" fill="#353535" stroke="#FFB200"/>
<path d="M293.626 328.619C327.321 292.23 383.757 289.711 419.679 322.974C455.601 356.236 457.422 412.699 423.727 449.088C390.032 485.477 333.595 487.997 297.673 454.734C261.751 421.471 259.931 365.008 293.626 328.619Z" fill="#353535" stroke="#FFB200"/>
<path d="M592.692 605.545C626.387 569.156 682.823 566.636 718.745 599.899C754.667 633.162 756.488 689.625 722.793 726.014C689.098 762.403 632.661 764.922 596.739 731.659C560.817 698.397 558.997 641.934 592.692 605.545Z" fill="#353535" stroke="#FFB200"/>
<path d="M741.954 743.757C775.649 707.368 832.085 704.849 868.007 738.111C903.929 771.374 905.75 827.837 872.055 864.226C838.36 900.615 781.923 903.134 746.001 869.872C710.079 836.609 708.259 780.146 741.954 743.757Z" fill="#353535" stroke="#FFB200"/>
</g>
<g style="mix-blend-mode:multiply" opacity="0.2">
<path d="M1010.39 788.336C1012.1 789.837 1012.18 792.48 1010.58 794.13L952.89 853.396C950.423 855.931 946.161 854.314 946.048 850.801L942.411 737.595C942.298 734.082 946.444 732.089 949.067 734.396L1010.39 788.336Z" fill="#434842"/>
</g>
<g style="mix-blend-mode:multiply" opacity="0.2">
<path d="M359.209 190.986C360.731 189.258 363.372 189.14 365.001 190.727L423.489 247.727C425.99 250.165 424.321 254.453 420.81 254.61L307.659 259.673C304.147 259.831 302.208 255.705 304.546 253.05L359.209 190.986Z" fill="#434842"/>
</g>
<g style="mix-blend-mode:overlay">
<rect width="10.1355" height="10.1355" rx="1" transform="matrix(0.0321117 0.999484 -0.999 0.044707 687.611 489.74)" fill="#434842"/>
<rect width="18.9125" height="18.9125" rx="1" transform="matrix(0.0321117 0.999484 -0.999 0.044707 675.308 469.836)" fill="#434842"/>
<rect width="18.9125" height="18.9125" rx="1" transform="matrix(0.0321117 0.999484 -0.999 0.044707 708.402 500.48)" fill="#434842"/>
</g>
<path d="M636.687 452.012L455.337 284.087" stroke="#EAA503" stroke-linecap="round"/>
<path d="M909.708 704.821L728.358 536.896" stroke="#EAA503" stroke-linecap="round"/>
<path d="M36.8232 1099.83L-144.527 931.909" stroke="#EAA503" stroke-linecap="round"/>
<g style="mix-blend-mode:overlay">
<rect width="10.1355" height="10.1355" rx="1" transform="matrix(-0.999 0.044707 -0.0321117 -0.999484 73.3003 530.83)" fill="#434842"/>
<rect width="18.9125" height="18.9125" rx="1" transform="matrix(-0.999 0.044707 -0.0321117 -0.999484 93.3418 518.264)" fill="#434842"/>
<rect width="18.9125" height="18.9125" rx="1" transform="matrix(-0.999 0.044707 -0.0321117 -0.999484 62.3091 551.777)" fill="#434842"/>
</g>
<path d="M111.635 479.377L281.689 295.727" stroke="#EAA503" stroke-linecap="round"/>
<path d="M-144.382 755.862L25.6729 572.211" stroke="#EAA503" stroke-linecap="round"/>
<path d="M749.349 1069.88L919.404 886.231" stroke="#EAA503" stroke-linecap="round"/>
<path d="M96.6667 -1L189.043 95H4.29063L96.6667 -1Z" fill="#A3A3A3"/>
<path d="M-15.3337 95L-107.71 -1L77.0424 -0.999986L-15.3337 95Z" fill="#A3A3A3"/>
<path d="M206.381 95L114.005 -1L298.757 -0.999986L206.381 95Z" fill="#A3A3A3"/>
<path d="M759.524 -1L851.9 95H667.148L759.524 -1Z" fill="#A3A3A3"/>
<path d="M983.524 -1L1075.9 95H891.148L983.524 -1Z" fill="#A3A3A3"/>
<path d="M871.523 95L779.147 -1L963.899 -0.999986L871.523 95Z" fill="#A3A3A3"/>
<path d="M1093.24 95L1000.86 -1L1185.61 -0.999986L1093.24 95Z" fill="#A3A3A3"/>
<path d="M316.095 -1L408.471 95H223.719L316.095 -1Z" fill="#A3A3A3"/>
<path d="M540.095 -1L632.471 95H447.719L540.095 -1Z" fill="#A3A3A3"/>
<path d="M428.095 95L335.719 -1L520.471 -0.999986L428.095 95Z" fill="#A3A3A3"/>
<path d="M649.809 95L557.433 -1L742.185 -0.999986L649.809 95Z" fill="#A3A3A3"/>
<path d="M1202.95 -1L1295.33 95H1110.58L1202.95 -1Z" fill="#A3A3A3"/>
<path d="M1426.95 -1L1519.33 95H1334.58L1426.95 -1Z" fill="#A3A3A3"/>
<path d="M1314.95 95L1222.58 -1L1407.33 -0.999986L1314.95 95Z" fill="#A3A3A3"/>
<path d="M1536.67 95L1444.29 -1L1629.04 -0.999986L1536.67 95Z" fill="#A3A3A3"/>
<path d="M294 522V581.4H297C307 581.4 314.3 579.6 318.9 576C323.7 572.2 326.1 565.6 326.1 556.2C326.1 547.6 323.8 540.9 319.2 536.1C328.4 534.1 336.8 531.5 344.4 528.3C352 525.1 358.4 520.9 363.6 515.7C372 520.7 378 527.1 381.6 534.9C385.2 542.5 387 551.9 387 563.1C387 581.7 380.2 596 366.6 606C353 616 332.3 621 304.5 621H235.5V461.1H294V493.8H296.7C305.7 493.8 312.2 492.1 316.2 488.7C320.4 485.1 322.5 478.9 322.5 470.1C322.5 461.1 320.4 454.9 316.2 451.5C312.2 447.9 305.7 446.1 296.7 446.1H235.5L219 405H309C333.2 405 350.8 410 361.8 420C372.8 430 378.3 444 378.3 462C378.3 473.4 375.7 483 370.5 490.8C365.5 498.4 358.8 504.5 350.4 509.1C342 513.7 332.9 517 323.1 519C313.3 521 303.6 522 294 522ZM483.101 623.7V575.1C487.901 571.7 490.301 562.5 490.301 547.5V405H548.801V544.8C548.801 571 543.401 590.4 532.601 603C521.801 615.6 505.301 622.5 483.101 623.7ZM468.101 575.7V623.7C445.701 622.7 429.001 615.9 418.001 603.3C407.201 590.7 401.801 571.2 401.801 544.8V405H460.301V547.5C460.301 562.9 462.901 572.3 468.101 575.7ZM641.365 482.4L616.765 534.9L604.165 529.2C592.365 523.8 583.265 516.6 576.865 507.6C570.465 498.6 567.265 485.5 567.265 468.3C567.265 446.3 572.965 429.9 584.365 419.1C595.965 408.1 615.065 402.5 641.665 402.3C652.665 402.3 662.665 402.8 671.665 403.8C680.665 404.8 687.865 405.9 693.265 407.1C698.665 408.1 701.365 408.6 701.365 408.6L695.365 456.9C695.365 456.9 692.865 456.6 687.865 456C683.065 455.4 677.065 454.9 669.865 454.5C662.665 453.9 655.665 453.6 648.865 453.6C641.665 453.6 636.165 454.7 632.365 456.9C628.765 458.9 626.965 462.8 626.965 468.6C626.965 471.8 628.265 474.4 630.865 476.4C633.465 478.4 636.965 480.4 641.365 482.4ZM630.565 541.5L655.465 488.4L668.365 494.1C681.965 500.1 691.865 507.6 698.065 516.6C704.265 525.4 707.365 538 707.365 554.4C707.365 576.6 701.565 593.7 689.965 605.7C678.365 617.7 659.265 623.8 632.665 624C619.465 624 607.165 623.1 595.765 621.3C584.365 619.7 574.265 617.8 565.465 615.6L571.465 567.3C571.465 567.3 573.865 567.7 578.665 568.5C583.665 569.3 590.265 570.1 598.465 570.9C606.665 571.7 615.665 572.1 625.465 572.1C633.065 572.1 638.765 571 642.565 568.8C646.365 566.6 648.265 563 648.265 558C648.265 554.6 647.365 551.9 645.565 549.9C643.765 547.9 640.565 545.9 635.965 543.9L630.565 541.5ZM772.702 402.6H836.002L886.102 621H824.002L820.702 606.9H792.802L800.902 560.4H809.902L772.702 402.6ZM774.802 621H712.102L761.902 422.7L789.802 539.7L774.802 621ZM974.625 511.8V507.9C982.625 504.1 986.625 494.6 986.625 479.4C986.625 470.2 985.825 463.4 984.225 459C982.625 454.4 979.825 451.3 975.825 449.7C972.025 448.1 966.625 447.3 959.625 447.3H901.125L884.625 405H969.825C987.425 405 1002.13 407.3 1013.93 411.9C1025.73 416.3 1034.53 423.8 1040.33 434.4C1046.33 444.8 1049.33 459.1 1049.33 477.3C1049.33 498.3 1044.73 514.4 1035.53 525.6L1058.03 621H998.025L974.625 511.8ZM959.625 621H901.125V462.3H959.625V621ZM1121.63 402.6H1184.93L1235.03 621H1172.93L1169.63 606.9H1141.73L1149.83 560.4H1158.83L1121.63 402.6ZM1123.73 621H1061.03L1110.83 422.7L1138.73 539.7L1123.73 621Z" fill="white"/>
</g>
<defs>
<filter id="filter0_i_1791_3" x="-133.619" y="299.087" width="1030.3" height="1033.88" filterUnits="userSpaceOnUse" color-interpolation-filters="sRGB">
<feFlood flood-opacity="0" result="BackgroundImageFix"/>
<feBlend mode="normal" in="SourceGraphic" in2="BackgroundImageFix" result="shape"/>
<feColorMatrix in="SourceAlpha" type="matrix" values="0 0 0 0 0 0 0 0 0 0 0 0 0 0 0 0 0 0 127 0" result="hardAlpha"/>
<feOffset dy="5"/>
<feGaussianBlur stdDeviation="2.2"/>
<feComposite in2="hardAlpha" operator="arithmetic" k2="-1" k3="1"/>
<feColorMatrix type="matrix" values="0 0 0 0 0 0 0 0 0 0 0 0 0 0 0 0 0 0 0.5 0"/>
<feBlend mode="normal" in2="shape" result="effect1_innerShadow_1791_3"/>
</filter>
<linearGradient id="paint0_linear_1791_3" x1="739.5" y1="0" x2="739.5" y2="1041" gradientUnits="userSpaceOnUse">
<stop stop-color="#343934"/>
<stop offset="1" stop-color="#212426"/>
</linearGradient>
<linearGradient id="paint1_linear_1791_3" x1="192.32" y1="847.252" x2="192.32" y2="1789" gradientUnits="userSpaceOnUse">
<stop stop-color="#575F56"/>
<stop offset="1" stop-color="#363936"/>
</linearGradient>
<linearGradient id="paint2_linear_1791_3" x1="192.32" y1="847.252" x2="192.32" y2="1789" gradientUnits="userSpaceOnUse">
<stop stop-color="#FFA600"/>
<stop offset="1" stop-color="#FF6200"/>
</linearGradient>
<clipPath id="clip0_1791_3">
<rect width="1479" height="1041" fill="white"/>
</clipPath>
</defs>
</svg>
